<?xml version="1.0" encoding="UTF-8"?><svg id="Layer_2" xmlns="http://www.w3.org/2000/svg" viewBox="0 0 210.15 141.68"><defs><style>.cls-1{fill:#166a5e;}.cls-1,.cls-2,.cls-3,.cls-4,.cls-5{stroke-width:0px;}.cls-2{fill:#15695d;}.cls-3{fill:#c5e7e2;}.cls-4{fill:#fff;}.cls-5{fill:#e55b25;}</style></defs><g id="Layer_1-2"><path class="cls-4" d="M186.33,123.76c-1.71,3.47-4.69,5.17-6.31,5.88-.15.07-.28.21-.31.38-.18.74-1.9,7.33-8.21,9.69-1.31.49-4.29,1.35-7.48.49-.77-.55-1.73-1.48-2.18-2.84-.65-1.96-.05-4.54,1.44-6.26.65-.75,1.42-1.31,2.17-1.83,1.14-.82,2.33-1.66,2.86-3.12.38-1.03.26-1.73.14-2.46-.1-.58-.2-1.17-.1-2.06.18-1.63.99-4.07,3.89-6.54l.03-.02c1.42-1.2,4.39-3.17,8.37-2.84,3.26.28,5.52,1.95,6.65,2.99,1.2,4.07-.85,8.32-.95,8.55Z"/><path class="cls-4" d="M35.76,115.02c-.51.78-1.37,1.32-2.39,1.47-1.09.16-2.21-.15-3.06-.88-.24-.19-.59-.17-.79.07-.2.24-.17.58.07.79.94.79,2.14,1.21,3.36,1.17.45.76.59,1.67.38,2.51-.21.82-.71,1.48-1.37,1.81-1.24.63-2.9.11-3.78-1.18-.17-.26-.52-.32-.77-.15-.26.18-.33.52-.15.78.32.47.72.86,1.17,1.16.11.47.35,1.82-.43,2.84-.77.99-2.07,1.09-2.7,1.14-3.71.28-7.11-3.33-8.74-5.06-3.1-3.3-5.39-7.32-6.81-11.98-.09-.29-.4-.46-.7-.37-.29.09-.46.4-.37.69.14.49.3.97.47,1.45-.29-.11-.59-.37-.87-.69-.27-.32-.5-.68-.66-.99-.51-1-.55-2.11-.36-3.15.31-1.73,1.23-3.3,1.64-3.98.14-.24.82-1.36,1.78-2.49.17-.18.33-.36.5-.54,1.03-1.1,2.55-2.31,3.93-1.92,1.06.3,2,1.53,2.06,2.65-.82.4-1.52.81-2.13,1.2-.26.17-.33.51-.16.76.17.26.52.34.77.17,1.95-1.26,5.11-2.79,9.09-2.87,1.35-.03,4.14-.09,7.07,1.54,3.07,1.72,4.6,3.54,4.57,5.39-.02,1.15-.68,2.58-1.57,2.78-.95.23-2.69-.83-3.47-3.4-.09-.29-.4-.45-.69-.37-.3.09-.46.4-.38.7.89,2.92,2.93,4.37,4.53,4.2,1.47,1.16,1.93,3.29.98,4.77Z"/><path class="cls-4" d="M204.59,40.93c-2,1.45-4.18,1.87-5.65,1.96-.3.03-.54.29-.52.59.02.3.29.54.59.52.21-.01.41-.03.61-.05.32-.04.62-.09.93-.14-.04.51-.18,1.12-.59,1.6-.17.2-.67.79-2.82.93-.12.01-.25.02-.37.02-2.74.12-5.16-.5-7.2-1.83-.28-.19-.55-.39-.82-.6-1.08-.86-2.11-1.67-2.29-3.01-.12-.88.13-1.66.45-2.27h0c.45.36.92.71,1.42,1.02.11.07.24.09.37.08.15-.02.3-.11.4-.26.17-.26.08-.61-.18-.77-1.43-.9-2.65-2.04-3.63-3.38-2.67-3.67-2.71-6.69-2.29-8.57.22-.95.73-3.19,2.28-3.8,1.3-.52,2.99.57,6.33,2.75,2.96,1.92,3,2.65,3.03,2.96.06.89-.58,1.77-1.22,2.15-1.3.76-3.74.18-5.6-2.12-.19-.24-.55-.28-.78-.09-.24.2-.27.54-.08.79,2.04,2.52,5.07,3.54,7.03,2.37.2-.12.39-.26.58-.43.15.46.42.89.83,1.2.52.4,1.18.55,1.86.48.08-.01.16-.03.25-.04-.08.36-.1.73-.05,1.11.17,1.18,1.07,2.24,2.24,2.65.5.18.95.2,1.38.15.58-.07,1.12-.28,1.58-.45,1.53-.6,2.91-1.7,3.96-3.2.18-.25.12-.6-.13-.78-.25-.17-.59-.11-.77.14-.65.92-1.78,2.15-3.46,2.81-.83.33-1.48.54-2.18.28-.78-.27-1.4-1-1.51-1.76-.15-1.11.69-2.28,1.94-2.65.29-.08.46-.4.37-.69-.09-.3-.4-.46-.69-.38-.69.2-1.27.57-1.73,1.04-.77.78-1.83.82-2.37.4-.49-.37-.63-1.15-.53-1.74.16-.41.24-.87.21-1.33-.06-.95-.69-1.97-3.53-3.81-1.74-1.13-3.06-2-4.18-2.51.53-2.11,2.52-3.6,4.52-3.32,1.69.23,3.08,1.69,3.41,3.53.05.28.31.49.61.45.01,0,.02,0,.04-.01.3-.05.51-.34.45-.64-.08-.49-.23-.94-.43-1.38,1.82-.6,3.71-.27,4.75.9.27.29,1.13,1.39.91,2.87-.12.82-.54,1.43-.86,1.79-.21.24-.19.58.05.79.12.11.28.16.43.14.14-.02.26-.08.36-.19.35-.39.77-1,1.01-1.82,1.2.24,2.98.86,4.27,2.48.9,1.14,1.18,2.29,1.27,2.71.85,3.6-.93,7.94-4.24,10.33Z"/><path class="cls-3" d="M168.66,51.59l-.2-1.8c-.07-.08-.14-.15-.22-.23-2.04-2.26-4.15-4.39-6.34-6.41-19.66-18.19-44.54-26.92-69.55-24.11-4.07.45-8.07,1.21-11.98,2.25-.78.21-1.56.42-2.34.66-3.87,1.15-7.65,2.58-11.31,4.28-.73.34-1.46.69-2.18,1.05-.72.36-1.45.73-2.16,1.11s-1.42.77-2.13,1.18c-.57.33-1.14.66-1.71,1-1.69,1.02-3.36,2.11-5,3.25-2.18,1.53-4.29,3.16-6.35,4.89-.47.4-.94.81-1.41,1.22-1.4,1.23-2.77,2.51-4.11,3.84-4.44,4.41-8.53,9.35-12.18,14.75-.5.74-1,1.5-1.48,2.26-1.07,1.66-2.08,3.36-3.07,5.11l.3,2.71,2.28,20.26,143.49-16.1-2.37-21.17ZM100.81,28.34c.49-.85,1.6-2.42,3.7-3.28,2.51-1.03,4.77-.38,5.63-.05.29.11.43.43.32.72-.11.28-.43.43-.72.31-.73-.28-2.66-.84-4.8.04-1.78.74-2.74,2.07-3.15,2.8-.09.16-.25.26-.42.28-.11.02-.23-.01-.34-.07-.26-.15-.36-.49-.21-.75ZM74.63,33.78c-.11.02-.23,0-.33-.07-.27-.15-.36-.49-.21-.76.52-.93,1.74-2.63,4.04-3.56,2.08-.85,3.99-.6,4.94-.38.3.07.48.37.41.67-.07.3-.37.49-.67.41-.82-.19-2.46-.4-4.26.33-1.97.79-3.03,2.27-3.48,3.08-.09.16-.25.25-.43.27ZM87.85,72.54c-.06.04-.14.07-.21.07-.21.03-.43-.08-.55-.28-.14-.27-.06-.61.21-.76,2.79-1.56,4.36-4.63,4-7.8-.49-4.35-4.42-7.49-8.77-7-2.37.27-4.47,1.57-5.77,3.57-.17.26-.51.34-.77.17-.25-.17-.33-.52-.17-.77.55-.85,1.23-1.59,2.01-2.21l-1.78-15.85c-.42-3.78,2.3-7.2,6.08-7.62h.03c3.77-.41,7.17,2.31,7.59,6.08l2.64,23.51c.41,3.62-1.38,7.11-4.56,8.89ZM92.83,57.32c-.22-.22-.22-.57,0-.79,1.06-1.05,2.33-1.74,3.67-2.02.91-.19,2.17-.44,3.16.37.74.6,1.08,1.63.97,2.87-.12,1.29-.84,2.16-1.26,2.55-.09.09-.21.13-.33.15-.16.02-.34-.04-.46-.17-.21-.23-.2-.58.02-.79.25-.23.83-.88.92-1.84.04-.4.05-1.41-.56-1.91-.58-.47-1.46-.3-2.23-.14-1.43.29-2.48,1.1-3.12,1.72-.21.22-.57.21-.78,0ZM101.11,72.18c-.44,1.38-1.21,2.48-2.35,2.7-.06.02-.11.02-.18.03-.23.03-.48.02-.77-.04-.72-.16-1.63-.67-2.69-1.89-.2-.24-.18-.59.06-.78.23-.21.58-.18.78.06.87,1.01,1.69,1.55,2.35,1.56.08,0,.16,0,.24-.02.5-.1.92-.58,1.23-1.25.59-1.28.82-3.28.55-4.88-.51-3-1.7-3.94-2.61-4.19-1.07-.3-2.13.19-2.67.51-.26.15-.61.07-.76-.19-.15-.26-.07-.61.2-.76.69-.41,2.07-1.04,3.54-.62,1.21.34,2.79,1.5,3.4,5.07.24,1.43.15,3.24-.31,4.71ZM97.09,65.28c.91-.1,1.79,1.09,1.97,2.66.18,1.57-.42,2.93-1.33,3.03-.91.1-1.79-1.09-1.97-2.66-.18-1.57.42-2.92,1.33-3.02ZM101.75,63.29c-.14-.27-.04-.61.23-.75l3.8-2.01c.27-.14.61-.04.75.23.14.27.04.61-.23.75l-3.8,2.01c-.07.03-.13.05-.2.06-.22.03-.44-.08-.55-.29ZM107.26,75.09c-.07.22-.25.36-.46.38-.08,0-.15,0-.24-.03l-3.87-1.27c-.29-.09-.45-.41-.36-.7.1-.29.41-.45.71-.36l2.95.97.92.3c.18.06.31.21.36.38.03.1.03.21-.01.32ZM107.22,68.95h-.09l-3.98-.23c-.3-.02-.54-.27-.52-.58.02-.31.28-.54.58-.53l3.98.22c.3.02.54.28.52.59-.02.27-.23.5-.49.53ZM114.22,68.94c-.09.07-.19.1-.28.11-.19.02-.37-.05-.5-.21-.19-.24-.15-.59.09-.78,2.18-1.71,3.29-4.38,2.98-7.12-.49-4.35-4.42-7.49-8.76-7-1.37.15-2.65.65-3.74,1.43-.01.01-.03.02-.04.03-.61.45-1.17.99-1.65,1.61-.19.25-.53.29-.78.11-.24-.19-.29-.54-.11-.78.48-.62,1.02-1.17,1.62-1.64l-1.78-15.85c-.42-3.78,2.31-7.2,6.08-7.62h.1s.04-.02.06-.02c3.72-.34,7.04,2.37,7.46,6.09l2.64,23.52c.35,3.13-.92,6.17-3.4,8.12Z"/><path class="cls-2" d="M169.55,49.48s0-.05-.02-.07c-.02-.1-.08-.19-.14-.26-.79-.88-1.59-1.74-2.41-2.58l-4.89-3.65-.19.22-6.71,7.87,8.52,6.37,4.94-5.79,1-1.17-.11-.94Z"/><polygon class="cls-2" points="124.33 54.48 132.85 60.85 139.76 52.75 131.23 46.38 124.33 54.48"/><polygon class="cls-2" points="139.76 52.75 148.28 59.12 155.19 51.02 146.66 44.65 139.76 52.75"/><polygon class="cls-2" points="22.06 66.21 30.58 72.58 37.49 64.48 28.96 58.12 22.06 66.21"/><polygon class="cls-2" points="37.49 64.48 46.01 70.85 52.92 62.75 44.39 56.39 37.49 64.48"/><polygon class="cls-2" points="59.82 54.65 52.92 62.75 61.44 69.12 68.35 61.02 59.82 54.65"/><path class="cls-2" d="M83.47,29.68c-.07.3-.37.48-.67.41-.82-.19-2.46-.4-4.26.33-1.97.8-3.03,2.27-3.48,3.08-.09.16-.25.26-.43.28-.11.01-.23,0-.33-.07-.27-.15-.36-.49-.21-.76.52-.93,1.75-2.63,4.04-3.56,2.09-.85,3.99-.6,4.94-.38.3.07.48.37.41.67Z"/><path class="cls-2" d="M110.45,25.73c-.11.29-.43.43-.72.32-.73-.28-2.66-.84-4.8.04-1.78.73-2.74,2.07-3.16,2.79-.09.16-.25.26-.42.28-.11.01-.23-.01-.34-.07-.27-.15-.36-.49-.21-.76.49-.85,1.61-2.42,3.7-3.28,2.51-1.03,4.77-.38,5.62-.05.29.11.43.43.32.72Z"/><path class="cls-2" d="M100.64,57.76c-.12,1.29-.84,2.16-1.26,2.55-.09.09-.2.14-.32.15-.16.02-.34-.03-.47-.17-.21-.23-.2-.58.02-.79.25-.23.83-.88.92-1.84.04-.4.05-1.41-.56-1.92-.58-.48-1.46-.3-2.23-.14-1.43.29-2.48,1.1-3.11,1.73-.21.22-.57.21-.78,0-.22-.22-.21-.57,0-.79,1.06-1.05,2.33-1.75,3.67-2.02.91-.19,2.17-.44,3.16.37.74.61,1.08,1.63.97,2.88Z"/><path class="cls-2" d="M101.11,72.18c-.44,1.38-1.21,2.47-2.35,2.7-.06.01-.11.02-.17.02-.23.03-.48.02-.77-.04-.72-.16-1.63-.66-2.69-1.89-.2-.24-.18-.59.06-.79.23-.2.58-.18.79.06.87,1.01,1.69,1.55,2.35,1.56.08,0,.16,0,.24-.02.5-.1.92-.58,1.24-1.25.59-1.28.82-3.28.55-4.88-.51-3-1.7-3.94-2.61-4.19-1.07-.3-2.13.19-2.67.51-.26.15-.61.07-.76-.2-.16-.26-.07-.6.19-.76.69-.41,2.07-1.04,3.54-.62,1.21.34,2.79,1.5,3.4,5.07.24,1.44.16,3.24-.31,4.71Z"/><path class="cls-2" d="M99.06,67.94c.18,1.57-.42,2.93-1.33,3.03s-1.79-1.09-1.97-2.66.42-2.92,1.33-3.03,1.79,1.09,1.97,2.66Z"/><path class="cls-2" d="M106.3,61.51l-3.8,2.01c-.06.03-.13.05-.2.06-.22.02-.44-.09-.55-.29-.15-.27-.04-.61.23-.75l3.8-2.01c.27-.14.61-.04.75.23.14.27.04.61-.23.75Z"/><path class="cls-2" d="M107.71,68.43c-.02.27-.23.49-.49.52-.03,0-.06,0-.09,0l-3.98-.22c-.3-.02-.54-.28-.52-.59.02-.31.28-.54.58-.53l3.98.22c.31.02.54.28.52.59Z"/><path class="cls-2" d="M107.26,75.09c-.07.22-.26.36-.47.38-.08,0-.16,0-.24-.03l-3.87-1.27c-.29-.09-.45-.41-.35-.7.1-.29.41-.45.7-.35l2.95.97.92.3c.18.06.31.21.36.38.03.1.03.21,0,.32Z"/><path class="cls-2" d="M15.87,107.47c1.66.6,3.38.9,5.13.91.59,0,1.18-.03,1.77-.1s1.22-.17,1.82-.32c.3-.07.48-.37.41-.67-.07-.3-.37-.48-.67-.41-1.09.26-2.21.39-3.33.38-1.62,0-3.22-.29-4.76-.85-.29-.1-.61.05-.71.34-.1.29.05.61.34.71Z"/><path class="cls-2" d="M18.35,112.36c1.92.94,3.74,1.06,4.93,1,.01,0,.02,0,.03,0,.29-.03.51-.29.49-.58-.02-.31-.28-.54-.58-.53-1.06.05-2.68-.05-4.39-.89-1.12-.55-2.13-1.35-2.94-2.31-.2-.24-.55-.27-.78-.07-.24.2-.27.55-.07.78.9,1.09,2.05,1.98,3.3,2.6Z"/><path class="cls-2" d="M15.52,115.28c1.65,1.64,3.58,2.12,4.58,2.26.05,0,.09,0,.14,0,.25-.03.45-.22.49-.48.04-.3-.17-.59-.47-.63-.87-.12-2.53-.54-3.95-1.95-1.14-1.13-1.63-2.41-1.85-3.28-.07-.3-.37-.48-.67-.41-.3.07-.48.37-.41.67.25,1.01.82,2.49,2.14,3.81Z"/><path class="cls-2" d="M185.85,117.21l-9.39-3.25c-.29-.1-.61.05-.71.34s.05.61.34.71l9.39,3.25c.08.03.16.04.24.03.21-.02.39-.16.46-.37.1-.29-.05-.61-.34-.71Z"/><path class="cls-2" d="M183.6,119.95l-9.39-3.25c-.29-.1-.61.05-.71.34-.1.29.05.61.34.71l9.39,3.25c.08.03.16.04.24.03.21-.02.39-.16.46-.37.1-.29-.05-.61-.34-.71Z"/><path class="cls-2" d="M182.31,123.02l-10.34-3.58c-.29-.1-.61.05-.71.34s.05.61.34.71l10.34,3.58c.08.03.16.04.24.03.21-.02.39-.16.46-.37.1-.29-.05-.61-.34-.71Z"/><path class="cls-2" d="M180.71,125.98l-9.46-3.28c-.29-.1-.61.05-.71.34-.1.29.05.61.34.71l9.46,3.28c.08.03.16.04.24.03.21-.02.39-.16.46-.37.1-.29-.05-.61-.34-.71Z"/><path class="cls-2" d="M176.88,128.16l-6.21-2.15c-.29-.1-.61.05-.71.34-.1.29.05.61.34.71l6.21,2.15c.08.03.16.04.24.03.21-.02.39-.16.46-.37.1-.29-.05-.61-.34-.71Z"/><path class="cls-2" d="M176.34,131.49l-7.13-2.47c-.29-.1-.61.05-.71.34s.05.61.34.71l7.13,2.47c.08.03.16.04.24.03.21-.02.39-.16.46-.37.1-.29-.05-.61-.34-.71Z"/><path class="cls-2" d="M174.59,134.4l-8.34-2.89c-.29-.1-.61.05-.71.34-.1.29.05.61.34.71l8.34,2.89c.08.03.16.04.24.03.21-.02.39-.16.46-.37.1-.29-.05-.61-.34-.71Z"/><path class="cls-2" d="M171.5,136.84l-6.05-2.1c-.29-.1-.61.05-.71.34s.05.61.34.71l6.05,2.1c.08.03.16.04.24.03.21-.02.39-.16.46-.37.1-.29-.05-.61-.34-.71Z"/><path class="cls-2" d="M209.92,30.34c-.11-.5-.42-1.82-1.48-3.15-1.53-1.91-3.61-2.62-4.97-2.88.04-1.67-.9-2.88-1.22-3.24-1.38-1.54-3.86-1.98-6.16-1.13-.81-1.12-2-1.89-3.34-2.08-2.56-.36-5,1.41-5.72,4.02-.76-.22-1.44-.21-2.12.06-2.09.83-2.69,3.46-2.95,4.59-.48,2.12-.44,5.47,2.47,9.47.5.68,1.06,1.32,1.66,1.89-.58.99-.83,2.06-.72,3.06l.02.11c.25,1.78,1.55,2.81,2.7,3.73.34.27.73.56,1.18.82-1.5,4.62-3.77,8.77-6.7,12.2-2.21,2.6-3.7,4.23-6.03,4.93-1.83.55-3.73.37-5.51-.18l-1.36-12.15-.11-.94h0s0-.05-.02-.07c-.02-.1-.08-.2-.14-.26-.79-.88-1.59-1.74-2.41-2.58,0,0-.02-.02-.02-.02-17.26-17.92-39.18-28.13-61.91-29.08l-.11-.99c-.36-3.19-3.26-5.5-6.45-5.14l-6.22.7-1.2-10.71s-.01-.07-.02-.11c-.02-.04-.04-.07-.05-.1h-.01s-.03-.07-.06-.09c-.01-.02-.02-.03-.03-.04-.01-.01-.03-.03-.05-.05-.01,0-.03-.01-.05-.02-.01-.01-.03-.03-.05-.04-.02,0-.03,0-.04-.01-.02,0-.04-.02-.06-.03-.02,0-.03,0-.05,0-.02,0-.03-.01-.06-.01-.03,0-.06,0-.08,0,0,0-.02-.01-.02-.01-.04,0-.08.02-.11.03-.04.01-.07.03-.1.05l-9.45,5.37h-.01s-.04.03-.06.04c-.02.01-.03.02-.04.03-.02.01-.02.03-.04.05-.01.01-.02.02-.03.03-.02.02-.03.04-.04.05-.01.01-.02.03-.02.05-.02.02-.02.03-.02.05-.01.02-.02.04-.02.05,0,.02,0,.04-.01.05-.01.02-.01.04-.01.06t0,.01v.04s0,.04.01.06c0,.02,0,.03.01.05,0,.02,0,.03.02.06.01.02.02.03.03.05,0,.02.01.03.02.04,0,0,0,.01,0,.01,0,.01.02.03.02.03.01.02.03.03.04.06,0,0,.01.01.02.02.02.02.04.04.07.06,0,0,0,0,.01.01.03.02.06.04.08.05.02,0,.02,0,.03.01.02.01.05.02.07.03.01,0,.02,0,.03.01.04,0,.07,0,.1.01l9.61.31.51,4.54-7.11.8c-3.19.36-5.49,3.25-5.13,6.44l.12,1.08c-10.56,2.95-20.44,7.95-29.28,14.73-8.85,6.78-16.63,15.36-22.99,25.45-6.01-.36-11.92,1.26-16.72,4.62-5.55,3.88-9.05,10.4-9.87,18.38-.76,7.41.97,15.1,4.73,21.11.34.53.79.95,1.3,1.24-.26,1.3-.25,2.73.43,4.06.21.41,1.33,2.44,2.9,2.33h.05c.73,1.87,1.62,3.62,2.65,5.25,1.03,1.64,2.2,3.16,3.51,4.55,1.75,1.86,5.4,5.73,9.64,5.41.12,0,.27-.02.44-.04.84-.09,2.17-.38,3.06-1.52.75-.98.84-2.12.77-2.94.53.15,1.07.22,1.61.15.42-.05.83-.16,1.2-.35.95-.48,1.67-1.4,1.96-2.53.25-.99.14-2.03-.28-2.96,1.07-.3,1.99-.94,2.56-1.84,1.17-1.81.79-4.26-.77-5.84.96-.73,1.52-2.16,1.55-3.42.05-2.3-1.68-4.45-5.13-6.38-3.19-1.78-6.31-1.71-7.63-1.68-2.49.05-4.69.63-6.48,1.38h0c-.26-1.47-1.44-2.85-2.83-3.25-1.53-.43-3.23.32-5.04,2.23-.08.08-.17.17-.24.26-2.15-4.3-3.08-9.46-2.56-14.48.59-5.72,3.04-10.48,6.74-13.06,2.83-1.98,6.23-3.12,9.78-3.31l2.41,21.47c.04.31.31.53.61.5l61.36-6.89c.52,1.56,1.03,3.43,1.37,5.49.96,5.73.28,10.66-2.01,14.65-.61,1.06-2.03,3.54-4.95,5.46-3.38,2.23-7.16,2.61-10.13,2.41-.26-.79-.65-1.54-1.16-2.21-.66-.83-2.46-2.71-5.09-2.49-.35.04-.67.1-.98.18-.79-3.56-3.5-6.31-6.79-6.79-4.74-.7-7.86,3.76-8.44,4.66-1.57,2.45-1.71,5.02-1.62,6.52-1.51,1.02-2.75,2.29-3.69,3.76-2.34,3.66-3.34,9.44-.28,14.11.76,1.16,2.94,3.97,6.75,4.92,1.4.35,2.92.43,4.41.27,1.03-.11,2.05-.36,3.01-.71,2.67-.99,4.62-2.81,5.5-5.13,1.13-3.02.16-5.98-.8-7.86.47.18.99.34,1.56.42.15.02.87.11,1.84,0,1.08-.12,2.46-.49,3.66-1.51.29-.24.55-.51.79-.8,1.68.17,3.58.2,5.59-.03,3.17-.36,6.62-1.37,9.92-3.54,4.4-2.9,6.51-6.57,7.31-7.97,4.92-8.59,3.6-18.25,1.7-24.67l7.97-.89c9.32,5.04,18.2,10.93,26.44,17.54,7.27,5.84,14.14,12.31,20.4,19.24.11.12.23.23.35.34-1,1.63-1.39,3.08-1.17,4.44.1.69.36,1.25.75,1.65.76.76,1.8.82,2.41.77l1.73,2.84c-.21,5.08,2.18,9.66,6.25,11.97.84.47,1.67.81,2.5,1.04.02,0,.03,0,.04,0,1.69.47,3.33.51,4.73.35,1.52-.17,2.76-.56,3.5-.84,6.35-2.38,8.41-8.67,8.84-10.21,1.8-.83,4.82-2.67,6.6-6.3.09-.19.95-1.99,1.31-4.37.26-1.82.16-3.52-.3-5.05,0-.06-.02-.11-.05-.15-.31-.99-.78-1.89-1.39-2.7-3.06-4.06-8.18-4.11-10.38-4.13-1.75-.02-5.84-.06-9.37,3.01-1.71,1.49-2.76,3.23-3.38,4.87l-1.53-.63c.2-.42.4-1,.34-1.57-.03-.22-.08-.44-.2-.66-.45-.89-1.5-1.09-1.85-1.16-1.31-.26-2.77.19-4.37,1.34-6.49-7.15-13.59-13.85-21.11-19.88-5.93-4.75-12.17-9.15-18.67-13.14l55.35-6.21c.3-.03.53-.31.49-.61l-.32-2.83c1.31.19,2.66.22,4.05.07.9-.1,1.82-.29,2.73-.57,4.54-1.37,7.19-4.48,9.53-7.22,3.65-4.27,6.45-9.43,8.25-15.15.26,0,.52-.02.79-.04.19-.01.37-.03.54-.05,1.93-.22,2.67-.82,3.06-1.27.56-.67.87-1.57.87-2.6h0c1.29-.38,2.5-.94,3.55-1.71,3.66-2.64,5.62-7.47,4.67-11.49ZM83.04,6.27l7-3.98.47,4.22-7.48-.24ZM8.9,102.45c.14-.24.82-1.36,1.78-2.49.17-.18.33-.36.5-.54,1.03-1.1,2.55-2.31,3.93-1.92,1.06.3,2,1.53,2.06,2.65-.82.4-1.52.81-2.13,1.2-.26.17-.33.51-.16.76.17.26.52.34.77.17,1.95-1.26,5.11-2.79,9.09-2.87,1.35-.03,4.14-.09,7.07,1.54,3.07,1.72,4.6,3.54,4.57,5.39-.02,1.15-.68,2.58-1.57,2.78-.95.23-2.69-.83-3.47-3.4-.09-.29-.4-.45-.69-.37-.3.09-.46.4-.38.7.89,2.92,2.93,4.37,4.53,4.2,1.47,1.16,1.93,3.29.98,4.77-.51.78-1.37,1.32-2.39,1.47-1.09.16-2.21-.15-3.06-.88-.24-.19-.59-.17-.79.07-.2.24-.17.58.07.79.94.79,2.14,1.21,3.36,1.17.45.76.59,1.67.38,2.51-.21.82-.71,1.48-1.37,1.81-1.24.63-2.9.11-3.78-1.18-.17-.26-.52-.32-.77-.15-.26.18-.33.52-.15.78.32.47.72.86,1.17,1.16.11.47.35,1.82-.43,2.84-.77.99-2.07,1.09-2.7,1.14-3.71.28-7.11-3.33-8.74-5.06-3.1-3.3-5.39-7.32-6.81-11.98-.09-.29-.4-.46-.7-.37-.29.09-.46.4-.37.69.14.49.3.97.47,1.45-.29-.11-.59-.37-.87-.69-.27-.32-.5-.68-.66-.99-.51-1-.55-2.11-.36-3.15.31-1.73,1.23-3.3,1.64-3.98ZM68.12,110.35c-1.97-.58-4.03.54-4.61,2.5-.58,1.97.54,4.03,2.51,4.62.98.28,2.37.62,4.05.87-.04.04-.08.08-.13.11-1.95,1.63-4.51,1.27-4.62,1.25-1.41-.21-2.45-.89-3.06-1.42h-.01s-.03-.03-.05-.04l-.04-.03s-.04-.01-.06-.03c-.01,0-.02-.01-.04-.02-.02,0-.04,0-.06-.01-.02,0-.03,0-.05-.01-.03,0-.04,0-.06,0h-.05s-.04.01-.06.01c-.01,0-.03,0-.05.01-.02,0-.02.02-.04.02-.02,0-.04.01-.06.02,0,0-.02.01-.03.02-.02.01-.04.03-.06.04h0s-.02.03-.03.03c-.02.01-.03.03-.05.05h0s-.02.04-.03.06c-.02.01-.02.03-.03.04-.01.02-.01.04-.02.05-.01.01-.02.03-.02.05-.01.02,0,.03-.01.04,0,.03-.01.04-.01.06,0,.02,0,.04-.01.06,0,.02,0,.04,0,.05,0,.02.01.03.02.05v.05s.02.03.03.05c0,.02.02.04.02.06,0,0,.01.02.02.03.01.03.03.05.04.06h0c.14.19,3.52,4.47,1.9,8.8-.98,2.59-3.18,3.87-4.85,4.48-2.12.78-4.66.93-6.77.41-3.44-.86-5.41-3.4-6.09-4.45-2.79-4.26-1.86-9.54.29-12.9.91-1.43,2.14-2.65,3.63-3.61.18-.11.27-.32.26-.53-.12-1.27-.1-3.79,1.42-6.15.52-.79,3.28-4.75,7.34-4.15,2.88.42,5.26,2.9,5.9,6.11-1.01.54-1.69,1.29-1.99,1.69-.19.24-.14.59.1.78.25.19.59.14.78-.1.3-.39,1.39-1.67,3.11-1.86.04,0,.07,0,.1,0,2.11-.18,3.58,1.38,4.12,2.06.34.42.6.9.81,1.4-1.53-.19-2.74-.5-3.4-.69ZM187.28,115.22c1.2,4.07-.85,8.32-.95,8.55-1.71,3.47-4.69,5.17-6.31,5.88-.15.07-.28.21-.31.38-.18.74-1.9,7.33-8.21,9.69-1.31.49-4.29,1.35-7.48.49-.77-.55-1.73-1.48-2.18-2.84-.65-1.96-.05-4.54,1.44-6.26.65-.75,1.42-1.31,2.17-1.83,1.14-.82,2.33-1.66,2.86-3.12.38-1.03.26-1.73.14-2.46-.1-.58-.2-1.17-.1-2.06.18-1.63.99-4.07,3.89-6.54l.03-.02c1.42-1.2,4.39-3.17,8.37-2.84,3.26.28,5.52,1.95,6.65,2.99ZM152.08,119.11c.09-.13.16-.24.22-.34.38-.57,1.78-2.56,3.63-4.15.26-.23.56-.47.88-.69,1.06-.75,2.34-1.36,3.49-1.14.24.05.86.17,1.08.58.25.49-.14,1.28-.4,1.65,0,0-.01.01-.02.02,0,0,0,.01-.01.02,0,.02-.02.02-.02.04-.01.02-.03.03-.03.06h0s-.02.08-.04.11c0,0,0,.01,0,.01-.01.03-.01.06-.01.09,0,.01,0,.02,0,.03v.07s.02.03.02.05h0s0,.04.02.06h0s.02.04.02.05c.01.02.03.04.04.06,0,0,0,.02.02.03,0,0,0,.01,0,.01,0,.01.01.02.02.03.01,0,.02,0,.02.01.01.02.02.04.04.04l.04.04s.03.02.04.03c.01,0,.02,0,.02,0,.02.02.04.03.06.03,0,0,.01,0,.01,0,0,0,0,0,.01,0l2.18.89c-.54,1.82-.6,3.38-.59,4.09,0,.31.25.56.56.55.31-.01.56-.25.55-.56,0-.71.06-2.33.67-4.18,0,0,.01,0,.01-.01.01-.03.02-.05.02-.07.55-1.63,1.53-3.41,3.25-4.91,3.21-2.79,7-2.75,8.62-2.74,2.03.02,6.78.07,9.5,3.7.1.12.19.25.27.38-1.36-.87-3.22-1.71-5.54-1.9-3.25-.28-6.51.82-9.19,3.1l-.02.02c-3.18,2.71-4.08,5.44-4.28,7.27-.11,1.05.02,1.78.11,2.37.11.66.19,1.14-.08,1.88-.42,1.14-1.36,1.82-2.46,2.6-.81.57-1.64,1.17-2.37,2.01-1.48,1.69-2.56,4.62-1.67,7.34.16.49.39.96.67,1.4-3.57-2.14-5.7-6.42-5.47-10.99,0-.04,0-.07,0-.11,0-.02-.01-.04-.01-.06-.01-.02-.01-.04-.01-.05-.02-.04-.03-.07-.06-.1l-2-3.29s0,0-.01,0c-.02-.02-.03-.05-.04-.06,0,0,0,0-.01-.01s-.01-.02-.03-.03c0,0-.01,0-.02-.02l-.02-.02s-.03-.03-.05-.04c-.02-.01-.03-.01-.03-.02-.03-.02-.05-.03-.07-.04,0,0-.01,0-.01,0-.01,0-.03,0-.04-.02h0s-.03,0-.04-.01c0,0,0,0-.01,0,0,0-.02,0-.03,0h-.1s-.04,0-.06,0c-.01,0-.03,0-.04,0-.25.04-1.21.15-1.78-.42-.23-.24-.38-.57-.45-1.03-.23-1.49.56-2.94,1.03-3.69ZM84.17,14.08l14.44-1.62c2.58-.29,4.92,1.57,5.21,4.16l.09.82c-3.88-.11-7.78.05-11.68.49-4.11.46-8.15,1.23-12.11,2.28l-.1-.91c-.29-2.59,1.57-4.92,4.15-5.21ZM171.03,72.76L27.53,88.87h0s-2.28-20.26-2.28-20.26l-.3-2.71c.99-1.75,2-3.45,3.07-5.11.49-.76.98-1.51,1.48-2.26,3.65-5.41,7.74-10.34,12.18-14.75,1.34-1.33,2.71-2.61,4.11-3.84.46-.41.93-.82,1.41-1.22,2.05-1.73,4.17-3.36,6.35-4.89,1.64-1.14,3.3-2.22,5-3.25.57-.34,1.14-.67,1.71-1,.7-.4,1.41-.79,2.13-1.18s1.43-.75,2.16-1.11c.72-.36,1.45-.71,2.18-1.05,3.66-1.7,7.44-3.13,11.31-4.28.78-.23,1.55-.45,2.34-.66,3.91-1.04,7.91-1.8,11.98-2.25,25-2.81,49.89,5.92,69.55,24.11,2.19,2.02,4.3,4.15,6.34,6.41.07.08.14.15.22.23l.2,1.8,2.37,21.17h0ZM204.59,40.93c-2,1.45-4.18,1.87-5.65,1.96-.3.03-.54.29-.52.59.02.3.29.54.59.52.21-.01.41-.03.61-.05.32-.04.62-.09.93-.14-.04.51-.18,1.12-.59,1.6-.17.2-.67.79-2.82.93-.12.01-.25.02-.37.02-2.74.12-5.16-.5-7.2-1.83-.28-.19-.55-.39-.82-.6-1.08-.86-2.11-1.67-2.29-3.01-.12-.88.13-1.66.45-2.27h0c.45.36.92.71,1.42,1.02.11.07.24.09.37.08.15-.02.3-.11.4-.26.17-.26.08-.61-.18-.77-1.43-.9-2.65-2.04-3.63-3.38-2.67-3.67-2.71-6.69-2.29-8.57.22-.95.73-3.19,2.28-3.8,1.3-.52,2.99.57,6.33,2.75,2.96,1.92,3,2.65,3.03,2.96.06.89-.58,1.77-1.22,2.15-1.3.76-3.74.18-5.6-2.12-.19-.24-.55-.28-.78-.09-.24.2-.27.54-.08.79,2.04,2.52,5.07,3.54,7.03,2.37.2-.12.39-.26.58-.43.15.46.42.89.83,1.2.52.4,1.18.55,1.86.48.08-.01.16-.03.25-.04-.08.36-.1.73-.05,1.11.17,1.18,1.07,2.24,2.24,2.65.5.18.95.2,1.38.15.58-.07,1.12-.28,1.58-.45,1.53-.6,2.91-1.7,3.96-3.2.18-.25.12-.6-.13-.78-.25-.17-.59-.11-.77.14-.65.92-1.78,2.15-3.46,2.81-.83.33-1.48.54-2.18.28-.78-.27-1.4-1-1.51-1.76-.15-1.11.69-2.28,1.94-2.65.29-.08.46-.4.37-.69-.09-.3-.4-.46-.69-.38-.69.2-1.27.57-1.73,1.04-.77.78-1.83.82-2.37.4-.49-.37-.63-1.15-.53-1.74.16-.41.24-.87.21-1.33-.06-.95-.69-1.97-3.53-3.81-1.74-1.13-3.06-2-4.18-2.51.53-2.11,2.52-3.6,4.52-3.32,1.69.23,3.08,1.69,3.41,3.53.05.28.31.49.61.45.01,0,.02,0,.04-.01.3-.05.51-.34.45-.64-.08-.49-.23-.94-.43-1.38,1.82-.6,3.71-.27,4.75.9.27.29,1.13,1.39.91,2.87-.12.82-.54,1.43-.86,1.79-.21.24-.19.58.05.79.12.11.28.16.43.14.14-.02.26-.08.36-.19.35-.39.77-1,1.01-1.82,1.2.24,2.98.86,4.27,2.48.9,1.14,1.18,2.29,1.27,2.71.85,3.6-.93,7.94-4.24,10.33Z"/><polygon class="cls-5" points="90.05 2.3 90.52 6.52 83.04 6.27 90.05 2.3"/><path class="cls-3" d="M103.81,16.62l.09.82c-3.88-.11-7.78.05-11.68.49-4.11.46-8.16,1.23-12.11,2.27l-.1-.91c-.29-2.58,1.58-4.92,4.16-5.21l14.44-1.62c2.58-.29,4.92,1.58,5.21,4.16Z"/><path class="cls-5" d="M186.26,113.03c-1.35-.87-3.22-1.72-5.54-1.91-3.25-.28-6.51.82-9.19,3.1l-.02.02c-3.18,2.71-4.08,5.44-4.28,7.27-.12,1.06.01,1.78.12,2.37.1.66.19,1.14-.09,1.88-.42,1.14-1.36,1.82-2.46,2.6-.8.57-1.63,1.16-2.37,2.01-1.47,1.69-2.56,4.62-1.66,7.34.16.49.39.96.67,1.4-3.57-2.14-5.71-6.42-5.47-10.99,0-.04,0-.07,0-.11,0-.02,0-.04-.01-.06,0-.02,0-.04-.01-.05-.01-.04-.03-.07-.05-.1l-2-3.3s0,0,0,0c-.02-.02-.03-.04-.04-.06,0,0,0,0-.01,0s-.01-.01-.03-.03c0,0-.01,0-.02-.02h-.02s-.03-.04-.05-.05c-.01,0-.02-.01-.03-.02-.03-.02-.05-.03-.07-.03,0,0-.01,0-.01,0-.01,0-.03,0-.04-.02h0s-.03,0-.04-.01c0,0,0,0-.01,0,0,0-.02,0-.03,0-.02,0-.04,0-.07,0h-.01s-.02,0-.02,0c-.02,0-.04,0-.06,0-.01,0-.03,0-.04,0-.25.04-1.21.15-1.78-.42-.23-.24-.38-.57-.45-1.03-.23-1.49.55-2.93,1.02-3.69.09-.13.16-.24.22-.34.38-.57,1.77-2.57,3.63-4.15.26-.23.56-.47.88-.69,1.06-.75,2.34-1.36,3.5-1.14.23.05.86.17,1.08.58.25.49-.15,1.28-.4,1.64,0,0-.01.01-.02.02,0,0,0,.01,0,.02,0,.01-.01.02-.02.03,0,.02-.02.03-.03.06h0s-.02.08-.04.11h0s0,.07,0,.1c0,.01,0,.02,0,.03v.07s.02.03.02.05h0s0,.04.02.06h0s.01.03.01.04c.01.01.03.04.04.06,0,0,0,.01.01.02,0,0,0,.01,0,0,0,0,.01.02.02.02.01,0,.01,0,.02.01.01.02.02.03.04.04l.05.04s.02.02.03.03c.01,0,.02,0,.02,0,.02.01.03.02.06.03,0,0,.01,0,.01,0,0,0,0,0,.01,0l2.18.89c-.54,1.82-.6,3.38-.59,4.09,0,.31.25.56.56.55.31,0,.56-.25.55-.56,0-.71.06-2.33.67-4.18,0,0,0,0,0-.01,0-.02.02-.05.02-.07.56-1.63,1.53-3.41,3.25-4.91,3.21-2.79,7-2.75,8.63-2.73,2.03.02,6.78.07,9.5,3.7.1.12.18.25.27.38Z"/><path class="cls-5" d="M66.02,117.47c.97.28,2.37.63,4.05.88-.04.04-.08.08-.13.11-1.95,1.63-4.51,1.27-4.62,1.25-1.42-.21-2.45-.89-3.06-1.42h0s-.03-.03-.05-.04l-.03-.03s-.04-.01-.06-.02c-.01,0-.02-.01-.04-.02-.02,0-.04,0-.06,0-.02,0-.03,0-.04-.01-.03,0-.04,0-.06,0h-.05s-.04,0-.06.01c-.01,0-.03,0-.05.01-.02,0-.02.01-.04.02-.02,0-.04,0-.06.02,0,0-.01,0-.02.01-.02.01-.04.03-.06.04h0s-.02.02-.03.03c-.01.01-.03.02-.05.05h0s-.02.03-.03.06c-.01.01-.02.02-.03.03,0,.02-.01.04-.02.05,0,.01-.02.03-.02.05,0,.02,0,.03-.01.04,0,.03-.01.04,0,.06,0,.02,0,.04,0,.06,0,.02,0,.04,0,.05s0,.04.01.06v.05s.02.02.03.04c0,.01.01.03.02.05,0,0,.01.02.02.03.01.02.03.04.04.06h0c.14.19,3.52,4.47,1.9,8.8-.97,2.59-3.18,3.87-4.85,4.48-2.12.78-4.65.93-6.77.41-3.44-.86-5.41-3.4-6.1-4.45-2.78-4.26-1.86-9.54.29-12.9.91-1.43,2.14-2.65,3.63-3.62.17-.11.27-.32.25-.52-.12-1.28-.1-3.79,1.42-6.15.51-.79,3.27-4.75,7.34-4.15,2.88.42,5.26,2.9,5.89,6.11-1.01.54-1.68,1.29-1.99,1.69-.19.24-.15.6.1.78.25.18.59.14.78-.1.3-.39,1.4-1.67,3.11-1.86.04,0,.07,0,.1,0,2.1-.18,3.58,1.38,4.12,2.07.34.42.6.9.81,1.41-1.53-.19-2.74-.5-3.4-.69-1.97-.58-4.03.54-4.61,2.51-.58,1.97.54,4.03,2.51,4.62Z"/><path class="cls-2" d="M117.63,60.82l-2.64-23.52c-.42-3.73-3.75-6.43-7.46-6.09-.02,0-.04,0-.06,0h-.1c-3.77.43-6.51,3.85-6.08,7.63l1.78,15.85c-.59.47-1.14,1.02-1.62,1.64-.19.24-.13.6.11.78.25.19.59.14.78-.11.47-.62,1.03-1.16,1.65-1.61.01-.01.03-.02.04-.03,1.08-.78,2.36-1.28,3.74-1.43,4.35-.49,8.28,2.65,8.76,7,.31,2.75-.81,5.41-2.98,7.12-.24.19-.28.54-.09.78.13.16.31.23.5.21.1-.01.2-.05.28-.11,2.48-1.95,3.75-4.99,3.4-8.12ZM107.63,52.84c-1.26.14-2.46.54-3.52,1.16l-1.71-15.28c-.32-2.82,1.47-5.41,4.11-6.19-.7,1.5-1.09,3.04-1.15,4.63-.05,1.27-.12,2.85.92,4.32.47.68,1.11,1.23,1.88,1.64-.25.33-.47.68-.68,1.04-.32.59-1.07,2.13-1.1,3.8-.03,2.1,1.12,3.78,2.09,4.82-.27,0-.55.02-.83.05Z"/><path class="cls-4" d="M108.45,52.79c-.27,0-.55.02-.83.05-1.26.14-2.46.54-3.52,1.16l-1.71-15.28c-.32-2.82,1.47-5.41,4.11-6.19-.7,1.5-1.09,3.04-1.15,4.63-.05,1.27-.12,2.85.92,4.32.47.68,1.11,1.23,1.88,1.64-.25.33-.47.68-.68,1.04-.32.59-1.07,2.13-1.1,3.8-.03,2.1,1.12,3.78,2.09,4.82Z"/><path class="cls-2" d="M92.41,63.65l-2.64-23.51c-.42-3.77-3.82-6.49-7.59-6.09h-.03c-3.78.43-6.5,3.84-6.08,7.63l1.78,15.85c-.78.61-1.46,1.36-2.01,2.21-.17.25-.09.6.17.77.26.17.6.09.77-.17,1.3-2,3.4-3.3,5.77-3.57,4.35-.49,8.28,2.65,8.77,7,.36,3.17-1.22,6.23-4,7.8-.27.15-.36.49-.21.76.11.2.34.31.55.28.07,0,.15-.03.21-.07,3.17-1.78,4.96-5.27,4.56-8.89ZM82.41,55.67c-1.26.14-2.46.54-3.52,1.17l-1.72-15.28c-.31-2.79,1.42-5.35,4-6.16-.7,1.49-1.08,3.03-1.15,4.6-.05,1.27-.11,2.85.92,4.32.47.67,1.12,1.23,1.88,1.64-.25.33-.47.68-.68,1.04-.31.58-1.07,2.13-1.1,3.8-.03,2.1,1.12,3.78,2.08,4.81-.23,0-.47.02-.71.05Z"/><path class="cls-4" d="M83.13,55.62c-.23,0-.47.02-.71.05-1.26.14-2.46.54-3.52,1.17l-1.72-15.28c-.31-2.79,1.42-5.35,4-6.16-.7,1.49-1.08,3.03-1.15,4.6-.05,1.27-.11,2.85.92,4.32.47.67,1.12,1.23,1.88,1.64-.25.33-.47.68-.68,1.04-.31.58-1.07,2.13-1.1,3.8-.03,2.1,1.12,3.78,2.08,4.81Z"/><path class="cls-3" d="M145.92,7.19c-.97,2.13-3.3,2.67-3.55,2.72-2.86.58-4.23-1.67-6.79-1.75-1.85-.06-4.38,1.01-7.52,5.7-.03-1.14.01-5.36,3.14-8.97.77-.89,3.23-3.47,7.18-4.12,1.56-.25,5.01-.82,6.85,1.4,1.06,1.27,1.47,3.31.69,5.02Z"/><path class="cls-1" d="M128.06,14.37s-.1,0-.14-.02c-.22-.06-.37-.26-.37-.48-.04-1.62.19-5.78,3.26-9.32,1.16-1.33,3.67-3.67,7.49-4.29,1.59-.26,5.3-.86,7.33,1.58,1.25,1.51,1.57,3.8.76,5.57-1.11,2.44-3.81,2.99-3.92,3.01-1.78.36-3.03-.26-4.23-.87-.86-.43-1.67-.84-2.67-.87-2.24-.07-4.6,1.77-7.07,5.47-.1.15-.26.23-.43.23ZM140.98,1.03c-.97,0-1.88.15-2.51.25-3.51.57-5.82,2.72-6.88,3.95-2.06,2.37-2.74,5.05-2.94,6.91,2.34-3.06,4.66-4.56,6.94-4.5,1.23.04,2.18.52,3.1.98,1.09.55,2.13,1.07,3.56.78.1-.02,2.29-.46,3.19-2.43h0c.65-1.42.4-3.26-.62-4.48-.97-1.17-2.47-1.47-3.86-1.47Z"/><path class="cls-3" d="M142.5,12.88c.68.14,2.19.45,2.6,1.66.24.69.08,1.6-.51,2.18-.74.73-1.78.58-1.9.56-1.27-.21-1.48-1.36-2.52-1.79-.75-.32-1.97-.28-4,1.16.17-.47.85-2.21,2.71-3.2.46-.24,1.88-.92,3.61-.56Z"/><path class="cls-1" d="M143.05,17.81c-.23,0-.39-.02-.43-.03-.89-.15-1.36-.66-1.77-1.12-.28-.3-.52-.56-.87-.71-.81-.34-1.98.03-3.5,1.11-.18.13-.43.13-.61-.01-.18-.14-.25-.37-.17-.58.25-.71,1.05-2.46,2.95-3.48.72-.39,2.2-.98,3.96-.61h0c.74.15,2.48.51,2.99,2,.32.93.06,2.02-.63,2.71-.63.62-1.43.73-1.91.73ZM139.34,14.8c.37,0,.72.07,1.04.2.56.24.91.62,1.23.97.36.39.64.7,1.18.79.04,0,.88.14,1.45-.42.49-.48.54-1.19.38-1.64-.31-.92-1.6-1.19-2.22-1.32l.1-.51-.1.51c-1.44-.3-2.67.19-3.26.51-.7.37-1.22.86-1.6,1.35.66-.3,1.26-.45,1.8-.45Z"/><path class="cls-2" d="M154.6,119.26c-.7,1.28-.89,2.5-.93,3.21-.02.31.21.57.52.59.03,0,.07,0,.1,0,.26-.03.48-.24.49-.52.05-.8.31-2.34,1.49-3.77,1.11-1.35,2.49-1.92,3.21-2.14.29-.09.46-.4.37-.69-.09-.29-.4-.46-.69-.37-.48.14-1.21.42-1.98.92-.59.38-1.21.89-1.77,1.57-.32.39-.59.8-.8,1.19Z"/></g></svg>