<?xml version="1.0" encoding="UTF-8"?><svg id="Layer_2" xmlns="http://www.w3.org/2000/svg" viewBox="0 0 273.42 185.74"><defs><style>.cls-1{fill:#15695d;}.cls-1,.cls-2{stroke-width:0px;}.cls-2{fill:#e55b25;}</style></defs><g id="Layer_1-2"><path class="cls-2" d="M60.74,58.42c-1.67-.77-7.91,2.94-9.58,3.39-5.05,1.36-11.27-.78-16.28-1.75-5.42-1.05-10.67-2.73-16.13-3.62-3.38-.55-6.8-.89-10.23-1.01-1.95-.07-7.49-1.08-8.3,1.45-.29.9-.42,1.78.39,2.52,1.68,1.55,4.23,2.27,5.4,4.32,1.45,2.54,1.06,6.2,1.94,8.97,1.14,3.56,3.68,6.46,5.55,9.7,5.89,10.2,4.74,23,1.69,34.38-.33,1.22-.65,2.6.02,3.67,2.29,3.65,14.25-7.82,16.17-9.43,7.07-5.95,14.02-12.05,21.4-17.63,1.5-1.13,3.07-2.28,4.91-2.68.72-.16,1.46-.19,2.2-.16,1.08.04,1.94-.88,1.83-1.95-.36-3.61-.08-10.46-.09-11.41-.04-3.55-.29-7.08-.32-10.63-.02-1.72,1.04-6.73-.4-8.03-.05-.05-.11-.09-.18-.12Z"/><path class="cls-2" d="M223.38,34.23c1.41,1.24,4.23,1.02,4.46-1.96.22-2.86-3.83-3.43-4.96-1-.59,1.26-.23,2.31.5,2.95Z"/><path class="cls-2" d="M272.62,30.82c-1.79-1.87-4.57.73-6.14,1.79-2.1,1.42-4.43,2.45-6.75,3.48-1.94.86-3.94,1.73-6.04,2.15-2.11.41-4.08-.2-6.16.07-.03,0-.06-.02-.24-.09.17-.26.29-.48.45-.67,2.1-2.5,3.98-5.18,5.73-7.93,1.49-2.34,2.56-5.19,4.97-6.71,2.3-1.45,4.98-2.25,7.32-3.66,5.01-3.01.42-6.14-3.47-6.21-6.97-.13-13.91.75-20.83,1.4-7.24.68-14.54.22-21.78.85-6.3.54-12.88,1.73-19.11.08-2.07-.55-2.56-.24-3.1,1.67-.58,2.09-1.05,4.21-1.57,6.32-1.08,4.35-2.17,8.71-3.25,13.06-1.22,4.91-2.09,10.19-1.68,15.25.58,7.18,4,12.91,10.53,15.97,4.4,2.07,8.7,4.08,13.47,4.32.9.04,1.83.03,2.77-.07,5.8-.58,11.25-3.08,16.17-6.08,7.62-4.65,14.87-9.64,22.64-14.09,6.06-3.47,14.01-8.91,16.49-15.82.48-1.34.65-3.94-.42-5.06ZM231.64,33.73c-.17,3.1-3.09,4.78-5.96,4.63-.79-.04-1.52-.21-2.18-.48-2.52-1.05-3.91-3.66-3.4-6.68.2-1.17.7-2.33,1.59-3.12,4.1-3.61,10.23.61,9.95,5.64Z"/><path class="cls-2" d="M114.14,106.12c-1,4.37-2.45,8.54-3.52,12.88-.97,3.93-1.7,8.31-3.99,11.74-.17.26-.36.54-.65.67-.69.33-1.43-.31-1.99-.84-4.04-3.75-9.75-3.25-14.8-4.23-3.36-.65-6.65-1.67-9.79-3.04-1.61-.7-3.19-1.5-4.71-2.38-2.81-1.63-5.57-2.48-8.29.06-.44.41-.81.9-1.12,1.42-1.4,2.35-2.1,5.03-3.27,7.48-.87,1.83-2.37,3.25-3.3,5.04-1.18,2.26-1.54,6.34-1.49,8.73.01.7.41,1.36,1.06,1.62.96.39,1.74-.34,2.36-1,3.08-3.29,6.14-6.26,9.79-8.93,1.39-1.01,2.8-2.04,4.41-2.65,1.89-.71,4.01-.57,5.83.3,3.77,1.8,7.96,2.62,11.59,4.72,5.71,3.3,12.13,10.27,19.42,6.75,4.06-1.97,6.43-6.59,10.07-9.23,4.9-3.56,8.4-8.11,11.59-13.17.96-1.52,1.76-3.5,3.08-4.73.91-.84,2.28-1.3,3.41-.79,1.72.78,2.51,3.73,3.32,5.29,3.31,6.36,9.94,7.97,15.39,11.75,1.21.84,2.79,2.56,1.97,4.19-.17.33-.43.6-.72.82-2.39,1.75-5.11,3.39-7.43,5.38-2.51,2.15-3.98,4.63-5.52,7.51-1.26,2.36-1.28,5.65-2.19,8.22-1.34,3.78-3.2,7.34-5.21,10.79-1.89,3.25-4.42,6.44-5.9,9.89-.75,1.74-.95,3.78,1.19,4.89.64.33,1.37.47,2.09.46l10.7-.09c5.04-.04,10.07-.32,15.07-.88,2.56-.28,5.1-.64,7.64-1.07,1.46-.25,4.21-.16,4.63-2,.7-3.03-4.18-4.21-6.19-4.65-2.76-.61-5.5-1.26-8.23-1.96-2.56-.66-5.29-1.14-7.45-2.76-.3-.22-.6-.48-.71-.83-.1-.31-.05-.64,0-.96.92-5.09,3.72-9.03,6.88-12.98,4.56-5.7,10.2-10.78,13.91-17.12.33-.57.92-1.58,1.29-3.02.17-.67.79-3.39-.66-7.64-.85-2.49-2.41-4.65-5.5-8.88-1.96-2.69-2.94-4.06-4.6-5.91-2.21-2.45-4.58-4.75-6.78-7.2-1.19-1.33-2.11-2.71-3.05-4.09-.87-1.28-2.44-1.9-3.95-1.54l-33.74,1.2c-.08.01-.17.03-.27.06-1,.32-1.39,1.45-1.68,2.72Z"/><path class="cls-2" d="M66.36,99.49c16.5,1.46,28.57,2.53,29.02,2.58.07,0,.25.03.43.14.2.12.35.33.42.52.16.46-.08.97-.51,1.19-.5.26-1.11.61-1.8,1.05-1.55.99-2.55,1.63-3.46,2.63-1.63,1.81-1.58,3.29-3.23,4.7-.43.37-1.02.78-1.8.89-.62.09-1.17-.04-1.26-.07-.25-.06-.49-.15-.72-.28-3.49-2.21-6.52-3.52-8.72-4.33,0,0-3-1.09-9.21-4.76-.48-.28-1.61-.97-1.53-1.71,0-.08.03-.15.05-.19l.54-1.3c.29-.71,1.01-1.14,1.77-1.07Z"/><path class="cls-2" d="M100.37,31.39c-.23.06-.47.05-.67-.12-.29-.25-.42-.68-.51-1.04-.72-2.89,1.31-9.01,1.31-9.01.46-1.37,1.71-5.15.76-9.04-1.06-4.39-4.35-6.58-3.23-9.69.11-.3.3-.82.76-1.33,1.6-1.74,4.97-1.78,15.73,1.64,5.32,1.69,4.97,1.85,9.27,3.22,11.02,3.51,17.57,3.83,18.18,7.07.07.39.22.84.1,1.24-.1.34-.49.44-.79.53-3.51,1.12-7.02,2.26-10.49,3.5-4.02,1.44-8.02,2.98-11.97,4.61-4.03,1.66-8.01,3.43-11.96,5.27-2.02.94-4.01,1.92-5.99,2.93-.16.08-.34.17-.52.21Z"/><path class="cls-2" d="M210.62,87.99c-.49-.72-1.22-1.81-2.46-2.25-1.35-.48-2.66.02-3.19.21-6.94,2.61-14.09,4.66-20.99,7.36-4.72,1.85-6.99,2.49-11.48,4.71-3.64,1.8-8.14,4.06-7.8,5.69,0,.05.02.08.03.11.74,2.04,6.99,2.11,10.51,2.46,8.63.85,8.36,4.09,13.1,3.45,4.99-.67,4.22-4.17,13.96-10.51,4.92-3.2,9.85-5.55,9.55-8.28-.07-.64-.49-1.85-1.23-2.94Z"/><path class="cls-1" d="M167.61,50.12c.01.13.03.26.04.4.09.84.29,1.86-.57,2.39-.29.18-.63.26-.96.34-.82.19-1.64.35-2.47.47-2.74.4-2.28-4.01-2.36-5.7-.22-4.86-.59-9.71-1.13-14.55-.1-.89-.22-1.82-.73-2.54-.19,1.76-.3,3.53-.32,5.3-.01,1.23-.12,2.7-1.2,3.29-.84.45-1.93.1-2.6-.57s-1.03-1.59-1.37-2.48c-.52-1.38-1.04-2.76-1.56-4.14-.04-.11-.09-.22-.19-.27-.2-.09-.4.15-.47.36-.23.73-.07,1.53.09,2.28,1.33,6.38,2.21,12.86,2.61,19.36.02.26.22.93-.11,1.5-.33.56-.98.75-2.27,1.11-1.15.32-1.73.48-2.24.28-.74-.3-1.09-1.09-1.35-1.87-.54-1.65-.8-3.4-1.07-5.12-.81-5.22-1.38-10.47-2.29-15.68-.07-.41-.14-.83-.22-1.24-1.04-5.69-2.74-13.01-.03-14.7.38-.23,1.15-.48,2.71-.96,3.62-1.13,4.37-.77,4.7-.52.23.17.73.62,1.15,1.26.36.53.43.85.81,1.03.39.18.95.14,1.23-.16.2-.21.14-.42.25-1.19.08-.5.18-.91.21-1.02.4-1.32,3.66-1.72,5.59-1.74,1.42-.02,2.13-.04,2.6.18,1.19.55,1.59,1.97,1.81,3.15.39,2.08.4,4.24.48,6.35.24,5.85.17,11.7.53,17.55.11,1.84.25,3.68.43,5.52.07.79.15,1.57.24,2.36Z"/><path class="cls-1" d="M143.42,57.48c-1.35,1.61-3.64,2.18-4.76,2.45-1.28.31-3.3.84-5.29-.02-1.77-.76-2.7-2.26-3.28-3.26-3.03-5.2-4.71-10.59-6.16-15.35-1.12-3.65-2.02-6.69-1.87-10.45.07-1.76.37-3.55,1.63-5.03.77-.9,1.58-1.3,2.77-1.89,1.81-.9,4.69-2.35,7.27-1.27.84.35,1.45.89,2.18,1.72,2.81,3.21,3.93,6.89,4.46,8.68,1.02,3.48,2.07,7.62,3.22,14.53,1.08,6.48,1.08,8.37-.18,9.88ZM137.71,47.17c-.08-1.85-.44-3.72-.89-5.5-.62-2.52-1.55-4.96-2.79-7.24-.35-.65-.75-1.3-1.33-1.76-1.16-.9-2.46-.49-3.11.76-.71,1.35-.55,2.87-.26,4.32.43,2.11,1.03,4.18,1.73,6.21.67,1.97,1.83,5.29,4.04,6,1.71.55,2.66-.87,2.62-2.4,0-.13,0-.27-.01-.4Z"/><path class="cls-1" d="M171.15,25.5c.15-4.06-.04-8.28,2.74-10.45.61-.48,1.22-.74,1.68-.94.76-.32,3.02-1.18,8.92-.07,2.42.45,3.64.68,4.16,1.11,2.32,1.91,1.46,6.11.81,10.85-1.43,10.38-1.55,23.33-4.18,24.17-.15.05-1.01.04-1.92.14-1.46.17-2.2.03-2.57-.24-.74-.54-.59-1.83-.05-7.28.2-2.09.29-3.14-.4-3.75-.58-.52-1.59-.6-2.26-.21-.63.37-.85,1.18-.99,2.66-.53,5.81.45,8.06-.9,9.29-.44.41-1.12.59-2.49.95-1.37.37-2.24.35-2.87.05-.25-.12-.4-.25-.48-.34-.45-.49-.44-1.17-.44-1.41.12-8.19.91-16.36,1.22-24.55ZM182.71,21.04c-.4-.33-.97-.36-2.11-.43-1.07-.07-1.6-.1-2.04.2-.28.19-.44.45-.86,2.03-.27,1.05-.4,1.7-.76,3.75-.25,1.47-.29,1.7-.11,1.95.32.44.9.4,2.99.47,2.58.08,2.69.18,2.99-.04.58-.42.56-1.98.5-5.08-.03-1.75-.1-2.42-.62-2.84Z"/><path class="cls-1" d="M170.19,75.89c.33.49.62.94.91,1.39,1.54,2.38,3.24,4.62,4.87,6.92.83,1.17,1.64,2.35,2.39,3.57.68,1.1.21,2.23-.85,2.86-.54.32-1.14.48-1.73.63-.99.26-1.67.04-2.34-.79-2.91-3.59-5.09-7.77-7.55-11.7-.1-.16-.2-.32-.36-.42-.51-.33-1.72.42-2.16.69-.59.37.28,2.39.42,2.83.95,3.12,1.87,6.24,2.54,9.44.14.65.25,1.32.09,2.01-.15.66-.45,1.17-1.04,1.45-.83.4-2.27.9-3.21.69-1.08-.24-1.59-.98-1.87-2.07-1.15-4.44-2.21-8.91-3-13.43-1.05-6.03-3.09-12.25-3.09-12.25-1.09-3.34-1.81-4.84-1.01-6.38.51-.99,1.18-1.08,8.36-3.32,3.56-1.11,5.7-1.8,7.32-.65.32.23.57.49.94,1.01.87,1.22,2.15,3.44,2.81,7.06,0,0,.81,4.14.15,6.75-.31,1.22-.93,2.22-1.89,2.99-.25.2-.46.44-.73.7ZM161.13,72.45c.05.04.11.05.17.03.88-.24,1.7-.64,2.51-1.06.82-.42,1.71-.96,2.36-1.65,1.26-1.33,1.2-4.99-.65-5.8-.71-.31-1.6-.03-2.3.19-1.32.41-2.63.74-3.87,1.4-.03.02-.07.04-.08.07-.01.03,0,.07,0,.11.31,1.34.63,2.67.99,3.99.14.5.27,1.01.42,1.51.07.25.21,1.02.46,1.2Z"/><path class="cls-1" d="M119.95,55.6c.39-.63-.04-1.43-.44-3.55-.08-.45-.07-.94.2-1.3.16-.2.38-.33.61-.44,1.12-.55,3.1-.96,3.87.34.94,1.56,1.3,3.43,1.53,5.21.25,1.96.24,3.71-.71,5.5-.13.24-.74,1.2-1.92,2-1.86,1.26-4.18,1.46-6.06.86-1.45-.46-2.43-1.33-3.14-2.05-2.47-2.55-3.49-5.31-5.62-11.46-.97-2.8-2.21-6.43-3.12-11.28-.42-2.27-.74-4.6.59-6.38.63-.84,1.38-1.23,2.81-1.95,3.29-1.65,5.04-2.53,6.87-2,3.29.95,4.09,5.64,4.78,9.73.06.35.17,1.11-.24,1.79-.59.97-2.08,1.5-2.94,1.03-.4-.22-.46-.53-1.27-2.6-.71-1.8-.87-2.09-1.19-2.22-.74-.28-1.9.48-2.49,1.3-.73,1.02-.92,2.61,2,9.95,2.9,7.3,4.06,8.17,4.87,8.11.32-.02.78-.22,1-.58Z"/><path class="cls-1" d="M89.54,47.9c-.33-2.46-.59-4.67.73-6.46.46-.63,1.44-1.25,3.38-2.49,3.84-2.44,4.59-2.33,4.92-2.24,1.32.36,1.89,2.04,2.41,3.49,2.2,6.2,5.57,14.58,7.1,17.7.63,1.28,1.12,2.63,1.66,3.96.47,1.17,1.93,3.03.25,3.79-1.02.47-2.12.77-3.23.88-.5.05-1.03.07-1.5-.11-1.33-.48-1.47-2.52-1.93-3.65-.55-1.35-1.05-2.72-1.79-3.98-.32-.53-.91-1.72-1.67-1.63-2.2.24.56,6.5.83,7.25.59,1.65.82,3.16-1.19,3.81-1,.32-2.48.96-3.54.85-.67-.07-.93-.83-1.09-1.14-3.59-6.9-5.33-20.04-5.33-20.04ZM95.53,45.26c-.21-.01-.41.02-.6.12-1.31.66-.4,3.58-.17,4.63.02.09.04.19.06.28.24,1.2.79,3.23,2.42,2.92,3.12-.6,1.87-4.63.56-6.34-.44-.58-1.37-1.55-2.26-1.6Z"/><path class="cls-1" d="M120.47,72.04c-.03-.9-.51-4.22.57-4.43.83-.17.91-.19,1.3-.24.37-.05,2.94-.23,3.14-.2,1.48.22,1.91,5.68,3.85,10.37.69,1.66,1.86,4.16,2.26,4,.17-.06.14-.56-.12-3.36-.28-3.04-.43-4.56-.45-4.74-.12-1.49-.86-5.05-.68-6.54.17-1.41,2.11-1.72,3.07-1.64.8.07,2.06.09,2.2.99.48,3.12.77,10.12.94,13.27.18,3.33.37,6.36.79,9.66.28,2.13.12,3.45.28,5.6.09,1.22.08,2.9-1.07,3.52-.18.1-.4.13-.68.18,0,0-.96.18-1.89.03-1.85-.29-5.62-9.64-6.22-9.48-.34.09-.13,3.27.06,6.34.1,1.5.2,2.75-.55,3.3-.25.18-.36.11-2.27.32-1.32.15-1.71.23-2.07-.04-.51-.37-.55-1.12-.57-1.38-.1-1.68-.86-11.72-1.88-25.53Z"/><path class="cls-1" d="M185.67,86.42c-1.82,0-3.58-.39-4.85-1.71-.93-.96-1.5-2.6-.78-3.88.46-.82,1.33-1.29,2.2-1.44,1.47-.25,3.03.17,4.5.26,1,.06,2.03,0,2.95-.41,1.35-.6,2.39-2.05,2.08-3.69-.4-2.1-1.38-3.71-3.26-4.59-2.97-1.39-5.02-.76-7.84-1.62-.9-.28-2.8-.86-4.22-2.47-2.05-2.32-2.71-6.35-.92-9.63,2.1-3.82,6.34-4.31,7.46-4.43,1-.11,4.04-.46,5.19,1.24.55.81.59,1.98.42,2.74-.06.29-.19.83-.62,1.07-.18.1-.4.15-.65.14-1.56-.11-3.27,0-4.72.67-.83.39-1.71,1.12-1.91,2.12-.2,1,.32,1.96,1.25,2.19.35.08.7.13,1.06.17,1.49.19,2.98.39,4.47.57,1.95.24,3.78.84,5.51,1.86,3.67,2.16,5.43,6.92,5.17,11.3-.13,2.14-.89,4.13-2.14,5.8-1.45,1.95-3.37,2.81-5.61,3.22-1.55.28-3.19.49-4.76.5Z"/><path class="cls-1" d="M112.25,85.33c.07-.02.08-.22.07-.32-.23-3.64-.33-7.27-.37-10.92,0-.55-.15-1.94-.17-2.49-.07-2.04,1.49-2.35,3.51-2.79,1.49-.32,2.31,2.57,2.34,3.81.09,3.48.46,5.36.47,9.54,0,2.59.19,4.55.47,7.42.49,5.14,1.2,8.74-.16,9.44-.23.12-.79.14-1.92.19-1.1.05-1.66.07-2.11-.13-1.01-.44-1.37-1.71-1.52-2.2-1.17-3.86-4.23-8.46-4.63-8.32-.29.1.41,2.99.46,7.32.01.9,0,2.28-.87,2.87-.43.29-.94.29-1.73.3-.87,0-1.72,0-2.27-.51-.64-.6-.56-1.62-.55-1.99.12-3.06.22-6.09.24-9.15.02-4.68-.01-9.36-.02-14.04,0-1.76.76-1.75,2.33-2.27,1.43-.47,2.39.81,2.87,2.7.38,1.52.52,3.14.99,4.64.23.74.51,1.67,1.15,3.52.58,1.67,1.2,3.43,1.41,3.38Z"/><path class="cls-1" d="M85.85,85.26c.04-1.85.07-3.7.11-5.55.03-1.49-.27-4.56,1.56-5.16,1.71-.45,4.1-2.08,4.41.74.12,1.1.12,2.21.12,3.32,0,1.83-.01,3.67-.04,5.5-.01.94-.03,1.88-.05,2.82-.02.77.13,1.52.13,2.27.06.22.16.44.33.6.39.37.99.19,1.34-.16.3-.3.47-.71.6-1.11.72-2.16.7-4.33.73-6.58l.09-5.76c.01-.85.03-1.76.37-2.55.43-.97,1.36-1.28,2.29-1.66.55-.23,1.11-.45,1.7-.56,1.57-.3,1.48,1.69,1.55,2.78.1,1.53.01,3.06.02,4.59.02,3.21-.16,6.43-.44,9.63-.26,2.91-.42,8.07-3.47,9.57-1.15.56-2.57.38-3.8.27-1.53-.13-3.33-.28-4.74-.92-3.12-1.41-2.91-6.02-2.86-8.86.02-1.07.04-2.14.06-3.21Z"/><path class="cls-1" d="M146.61,91.42c.39.27.8.13,1.77-.06.82-.17,1.65-.23,2.47-.38,1.12-.21,2.24-.43,3.37-.5.79-.05,1.74-.11,2.32.59.69.82.94,2.28,1.02,3.34.08,1.05-.61,1.56-1.45,1.81-1.25.36-2.53.61-3.8.85-2.52.49-5.07.84-7.63,1.05-.73.06-1.61.18-2.26-.29-1.21-.86-.97-2.94-1.07-3.68-.85-6.85-1.57-13.63-2.74-22.77-.26-2.05-1.37-6.23-.11-6.59.39-.11.53-.3,1.65-.59,3.1-.79,4.09-1.01,8.23-2.09.59-.15,1.31-.38,1.89-.08.73.38,1.37,4.17,1.42,4.95.11,1.73-1.18,2.41-2.48,2.88-1.56.56-3.21.91-4.8,1.36-.14.04-.4.05-.47.2-.04.09-.04.21-.03.31.04.61.44,4.67,1.23,4.52,1.26-.24,2.66-.83,3.94-.43,1.42.44,1.89,2.4,1.66,3.83-.16.96-.71,1.29-1.49,1.59-.93.35-1.89.61-2.86.77-.39.06-.82.01-.99.49-.1.28-.06.58-.03.88.23,1.88.14,2.33.36,4.21.1.87.16,1.75.33,2.6.09.44.18.97.55,1.23Z"/><path class="cls-1" d="M74.78,58.33c-.59-.2-1.56.8-2.07,1.1-1.2.71-2.35,1.85-3.62,2.41-2.06.91-3.1-3.92-2.72-5.07.47-1.41,1.72-2.02,2.87-2.8,4.42-2.99,9.18-5.77,13.36-9.18.3-.25.65-.46,1-.62.72-.33,1.47-.15,1.88.5.61.96,1.19,2.15,1.43,3.27.19.91.07,1.72-.57,2.39-.83.86-1.74,1.61-2.75,2.24-.57.36-1.11.76-1.65,1.16-.5.37-.67.86-.44,1.46.18.48.34.97.53,1.45,1.23,3.21,2.46,6.42,3.26,9.77.14.57.25,1.16.33,1.74.15,1.15-.39,2-1.3,2.61-.69.47-1.49.72-2.33.82-1.09.13-1.95-.29-2.57-1.14-.35-.47-.63-1.01-.85-1.55-1.32-3.3-2.4-6.65-3.41-10.05-.09-.29-.22-.44-.39-.5Z"/><path class="cls-1" d="M73.42,89.35c-.28,1.18-.48,2.38-.6,3.59-.03.35-.09.75-.38.96-.23.16-.54.15-.81.07-1-.26-2-.5-3.02-.68-.82-.14-1.65-.43-1.64-1.41,0-.44.15-.86.28-1.28,1.2-3.99.6-8.23,1.41-12.29.03-.16.07-.33.1-.49.17-.73.48-1.41,1.24-1.67.71-.24,1.47-.22,2.21-.32,2.21-.3,4.5-.65,6.74-.65,1.49,0,2.79.7,3.5,2.03.8,1.49.58,3.53-.2,4.98-.45.83-1.11,1.54-1.89,2.06-.83.55-1.77.78-2.7,1.08,1.29,3.16,2.96,6.13,4.54,9.15.14.28.3.56.38.86.04.15.04.3-.01.43-.22.51-1.6.38-2.23.31-1.51-.16-2.27-.23-3.01-.7-.96-.59-1.48-1.87-2-2.84-.59-1.1-1.16-2.21-1.91-3.21ZM77.06,78.01c-1.08-.04-2.16.37-2.28,1.23-.19,1.32-.27,2.87,1.41,3,.72.06,1.61-.09,2.24-.46.83-.49.99-1.43.9-2.31-.09-.93-1.18-1.42-2.27-1.45Z"/></g></svg>