<?xml version="1.0" standalone="no"?>
<!DOCTYPE svg PUBLIC "-//W3C//DTD SVG 20010904//EN"
 "http://www.w3.org/TR/2001/REC-SVG-20010904/DTD/svg10.dtd">
<svg version="1.0" xmlns="http://www.w3.org/2000/svg"
 width="1092.000000pt" height="1092.000000pt" viewBox="0 0 1092.000000 1092.000000"
 preserveAspectRatio="xMidYMid meet">
<metadata>
Created by potrace 1.14, written by Peter Selinger 2001-2017
</metadata>
<g transform="translate(0.000000,1092.000000) scale(0.100000,-0.100000)"
fill="#000000" stroke="none">
<path d="M3972 9143 c-81 -62 -84 -134 -14 -265 77 -142 95 -198 96 -298 0
-94 -6 -170 -14 -170 -3 0 -6 -8 -7 -18 -1 -10 -13 -54 -27 -98 -33 -104 -47
-181 -49 -269 -1 -58 21 -111 45 -107 9 1 90 38 180 81 227 109 339 161 347
161 4 0 31 11 59 25 29 14 54 25 58 25 3 0 31 12 62 26 31 15 73 32 92 39 19
7 49 19 65 26 17 6 35 13 40 15 6 2 82 31 170 65 134 51 181 68 235 84 3 1 12
4 20 8 8 3 44 15 80 27 36 12 72 24 80 27 8 3 20 7 27 9 42 8 143 47 152 58
15 18 -5 84 -35 111 -14 13 -41 31 -60 40 -34 16 -246 80 -296 89 -12 3 -23 5
-23 6 0 1 -7 3 -15 5 -108 26 -240 66 -380 115 -80 28 -188 64 -240 81 -52 17
-102 33 -110 37 -15 5 -132 39 -160 46 -8 2 -33 9 -55 14 -74 19 -109 24 -201
27 -84 3 -93 1 -122 -22z"/>
<path d="M10188 8644 c-2 -1 -42 -5 -88 -9 -47 -3 -105 -8 -130 -10 -25 -3
-72 -7 -105 -10 -33 -3 -78 -7 -100 -10 -38 -5 -90 -9 -255 -20 -41 -3 -190
-8 -330 -10 -140 -3 -282 -7 -315 -9 -83 -6 -203 -17 -245 -21 -218 -25 -440
-25 -555 -1 -44 9 -90 18 -102 20 -38 8 -63 -24 -85 -104 -11 -41 -22 -84 -24
-95 -3 -19 -57 -242 -71 -295 -3 -14 -7 -29 -9 -35 -1 -5 -14 -55 -28 -110
-29 -110 -33 -124 -43 -175 -10 -48 -10 -50 -13 -52 -1 -2 -4 -12 -5 -23 -1
-11 -7 -38 -13 -60 -6 -22 -14 -58 -17 -80 -4 -22 -8 -51 -11 -65 -28 -164
-23 -409 11 -530 21 -72 76 -200 87 -200 4 0 8 -6 8 -12 0 -11 16 -32 68 -93
33 -37 106 -97 157 -126 69 -40 150 -79 165 -79 5 0 10 -4 10 -10 0 -5 6 -10
14 -10 12 0 59 -18 131 -50 145 -65 377 -81 540 -38 22 5 47 12 56 13 47 9
202 71 294 117 56 29 298 172 320 190 23 19 468 298 475 298 5 0 10 3 12 8 2
4 37 27 78 51 41 24 83 51 93 59 9 8 17 12 17 9 0 -10 261 155 348 220 232
173 390 392 390 543 0 112 -66 162 -152 118 -26 -13 -129 -81 -136 -89 -3 -4
-43 -26 -90 -51 -75 -39 -116 -58 -245 -113 -29 -13 -99 -37 -120 -41 -62 -13
-86 -16 -120 -16 -119 3 -175 6 -175 12 0 3 8 15 18 26 46 49 242 324 242 338
0 2 21 39 47 82 55 91 111 150 174 181 24 11 94 45 154 74 132 63 188 112 184
161 -4 41 -41 83 -99 111 -40 19 -64 21 -227 23 -100 1 -184 0 -185 -2z
m-1042 -599 c101 -77 135 -233 69 -319 -54 -71 -143 -100 -245 -81 -104 20
-179 111 -184 223 -2 38 23 122 45 153 27 39 67 62 129 75 48 10 61 9 105 -8
28 -11 64 -30 81 -43z"/>
<path d="M8943 7968 c-26 -13 -53 -65 -53 -103 0 -32 49 -84 82 -87 13 0 30
-2 38 -3 26 -2 68 34 80 70 24 72 -14 131 -85 133 -22 1 -50 -4 -62 -10z"/>
<path d="M7055 8621 c-79 -19 -146 -72 -175 -137 -30 -68 -36 -111 -45 -327
-12 -248 -14 -284 -20 -372 -10 -144 -14 -210 -20 -375 -4 -85 -8 -176 -9
-202 -4 -69 14 -104 57 -112 46 -9 162 20 195 49 25 21 25 25 28 176 1 85 5
175 8 200 5 46 24 98 35 100 3 0 18 3 34 5 38 7 65 -11 75 -49 6 -26 8 -102 2
-102 -3 0 -9 -77 -14 -180 -3 -81 -1 -103 11 -117 9 -10 20 -15 24 -12 5 3 9
1 9 -3 0 -9 55 -8 124 1 46 7 61 23 81 92 24 78 38 159 51 293 3 31 7 72 9 91
8 78 15 158 20 215 3 33 8 77 11 99 3 21 7 59 9 85 2 25 6 57 9 71 5 29 14 91
23 170 8 66 8 154 0 194 -8 38 -47 93 -72 101 -11 4 -24 9 -30 10 -5 2 -62 13
-125 24 -114 21 -247 26 -305 12z m241 -293 c8 -8 17 -30 20 -49 9 -66 6 -214
-5 -241 -12 -33 -26 -34 -199 -24 -54 4 -57 14 -38 123 9 54 19 105 21 113 2
8 4 20 4 25 1 6 10 24 21 42 19 32 20 32 90 29 46 -2 77 -8 86 -18z"/>
<path d="M6325 8554 c-27 -7 -52 -13 -55 -14 -27 -4 -48 -42 -54 -100 -6 -52
-48 -49 -90 6 -52 71 -69 73 -231 31 -107 -29 -145 -59 -160 -127 -8 -38 -8
-170 0 -210 3 -14 7 -43 10 -65 3 -22 12 -72 20 -112 8 -39 17 -89 21 -110 3
-21 7 -49 10 -63 3 -14 7 -43 10 -65 2 -22 7 -46 10 -54 3 -8 7 -38 10 -67 2
-28 7 -62 9 -75 9 -43 13 -73 20 -139 4 -36 9 -74 11 -85 2 -11 6 -40 9 -65 3
-25 7 -52 10 -60 2 -8 6 -33 10 -55 21 -140 52 -220 92 -230 48 -12 167 31
178 64 5 17 1 98 -9 191 -2 19 -7 67 -11 105 -3 39 -8 81 -9 95 -2 14 -7 44
-10 68 -3 23 -8 59 -11 80 -3 21 -8 49 -10 62 -3 14 -7 41 -10 60 -3 19 -7 45
-10 58 -11 50 -14 62 -21 109 -11 68 -11 66 -1 87 13 26 20 14 62 -99 54 -146
82 -185 137 -189 69 -6 88 32 94 184 4 106 9 148 19 158 3 3 5 -1 6 -9 0 -8 2
-23 5 -34 8 -39 16 -101 17 -142 1 -24 4 -43 7 -43 3 0 5 -17 6 -38 0 -20 4
-75 8 -122 7 -78 11 -160 20 -360 2 -41 7 -87 10 -101 7 -26 49 -56 76 -54 60
4 124 20 144 36 23 18 25 25 20 87 -2 37 -6 83 -9 102 -2 19 -7 75 -10 124 -3
49 -8 109 -10 135 -3 25 -7 156 -10 291 -9 375 -14 511 -19 555 -13 101 -16
117 -31 149 -26 55 -54 67 -148 65 -45 -1 -104 -8 -132 -15z"/>
<path d="M5173 8266 c-70 -23 -189 -84 -217 -113 -26 -25 -56 -74 -62 -98 -2
-5 -6 -21 -9 -35 -8 -30 -8 -212 -1 -255 30 -162 191 -644 242 -722 7 -12 14
-27 14 -33 0 -12 94 -165 114 -185 33 -33 117 -68 161 -67 161 4 311 77 342
168 10 30 10 137 -2 214 -3 25 -9 61 -11 80 -3 19 -7 42 -9 50 -2 8 -7 35 -10
60 -4 24 -8 47 -10 50 -2 3 -6 26 -10 50 -3 25 -17 94 -31 154 -22 100 -35
148 -81 306 -18 62 -91 215 -119 250 -54 66 -90 103 -116 116 -41 21 -135 26
-185 10z m151 -430 c57 -75 125 -247 152 -381 2 -11 6 -31 9 -45 3 -14 8 -57
11 -96 10 -107 -27 -159 -99 -140 -32 8 -85 63 -113 117 -20 40 -71 179 -78
214 -2 6 -9 30 -16 55 -7 25 -14 52 -15 60 -1 8 -5 31 -10 50 -22 91 0 176 52
204 36 18 76 4 107 -38z"/>
<path d="M4539 8009 c-25 -4 -60 -14 -77 -23 -18 -9 -33 -16 -34 -14 -6 4
-167 -84 -188 -104 -54 -50 -66 -152 -35 -298 9 -41 17 -82 19 -90 1 -8 6 -31
11 -50 5 -19 10 -38 11 -42 1 -5 2 -9 4 -10 1 -2 3 -10 5 -19 1 -9 28 -92 59
-185 63 -184 113 -312 145 -365 12 -19 24 -40 28 -48 16 -33 98 -111 145 -136
38 -21 68 -29 117 -31 36 -1 70 0 75 4 6 3 17 7 24 8 27 5 103 56 125 87 55
73 64 164 34 337 -1 8 -5 20 -8 25 -4 6 -12 26 -18 46 -20 63 -63 90 -121 76
-89 -20 -96 -36 -74 -152 2 -11 6 -30 9 -43 6 -33 -27 -64 -57 -53 -24 8 -100
110 -92 123 3 5 0 8 -5 8 -6 0 -11 4 -11 10 0 5 -11 33 -24 62 -68 150 -135
340 -140 401 -2 21 -6 40 -9 43 -3 3 -1 20 5 37 14 40 64 87 94 87 26 0 41
-22 78 -117 29 -76 43 -88 93 -79 35 6 81 59 77 89 -8 56 -25 145 -33 175 -5
17 -7 32 -4 32 3 0 1 6 -4 13 -6 6 -13 25 -17 41 -7 30 -54 103 -78 124 -32
26 -83 39 -129 31z"/>
<path d="M3910 7702 c-72 -20 -322 -178 -318 -201 1 -3 -4 -19 -11 -36 -14
-33 -18 -137 -7 -200 4 -22 9 -53 11 -70 3 -16 7 -41 10 -55 3 -14 8 -41 11
-60 3 -19 10 -55 15 -80 5 -25 12 -56 14 -70 40 -193 140 -477 179 -509 20
-17 73 -10 139 17 16 7 32 12 36 12 4 0 17 10 29 23 26 27 23 81 -7 153 -27
65 -54 161 -56 202 -2 42 25 68 54 52 24 -12 111 -187 135 -270 22 -79 48
-101 115 -96 77 7 151 34 160 59 8 21 -3 70 -20 92 -4 6 -21 44 -37 86 -17 42
-45 107 -62 145 -50 107 -54 119 -124 293 -36 91 -66 171 -66 178 0 7 -4 13
-10 13 -5 0 -9 3 -8 8 3 6 -31 108 -52 157 -4 11 -14 36 -21 55 -26 72 -70
114 -109 102z m-41 -367 c16 -14 39 -41 50 -59 26 -41 54 -156 38 -156 -5 0
-7 -3 -4 -6 17 -17 -46 -73 -78 -69 -27 3 -55 18 -55 29 0 6 -5 17 -12 24 -6
6 -13 20 -14 30 -2 10 -9 44 -17 77 -31 135 13 196 92 130z"/>
<path d="M3304 7384 c-21 -15 -41 -29 -44 -33 -12 -15 -95 -73 -255 -178 -93
-62 -175 -117 -182 -123 -7 -5 -24 -15 -38 -22 -14 -6 -25 -14 -25 -17 0 -4
-16 -15 -35 -25 -53 -29 -79 -77 -72 -134 8 -67 13 -87 33 -116 23 -36 43 -46
72 -35 22 9 179 114 192 129 3 3 14 6 25 5 17 0 27 -22 63 -135 113 -348 143
-397 243 -387 55 6 113 42 131 82 7 15 7 41 2 72 -4 26 -9 53 -9 58 -4 32 -44
153 -124 374 -17 46 -31 89 -31 96 0 7 33 35 73 63 158 109 175 147 123 267
-41 91 -74 105 -142 59z"/>
<path d="M7330 7063 c-174 -22 -274 -84 -328 -202 -33 -72 -41 -177 -17 -241
9 -25 17 -51 17 -57 1 -7 5 -13 10 -13 4 0 8 -6 8 -14 0 -21 77 -86 135 -112
53 -25 124 -41 210 -50 49 -4 90 -11 90 -14 0 -1 11 -4 25 -6 13 -2 43 -16 66
-29 56 -33 92 -86 112 -165 12 -47 -14 -109 -59 -141 -30 -21 -46 -24 -129
-25 -52 -1 -108 3 -124 7 -18 5 -34 5 -39 0 -5 -5 -15 -7 -22 -4 -18 6 -71
-22 -89 -49 -21 -30 -20 -86 2 -125 16 -30 82 -92 82 -78 0 4 6 2 13 -4 42
-35 228 -28 371 13 155 45 260 214 249 401 -5 98 -17 144 -55 224 -28 57 -103
151 -121 151 -4 0 -16 8 -26 17 -47 39 -158 72 -296 87 -153 17 -180 25 -192
60 -14 45 -10 62 28 98 45 43 95 59 193 62 67 1 70 3 82 31 18 43 7 105 -23
137 -29 31 -108 50 -173 41z"/>
<path d="M92 6955 c-71 -17 -103 -61 -88 -120 8 -30 16 -37 126 -112 68 -46
90 -68 112 -109 15 -28 30 -66 32 -85 3 -19 8 -52 11 -74 3 -22 8 -56 11 -75
15 -108 18 -118 59 -202 29 -57 137 -232 164 -264 18 -22 82 -156 107 -224 30
-83 61 -221 71 -316 13 -125 7 -372 -13 -494 -17 -107 -35 -202 -45 -240 -23
-87 -47 -207 -47 -232 0 -15 11 -40 25 -54 20 -22 31 -26 61 -21 95 12 220 95
472 312 64 55 143 123 175 150 32 28 63 55 69 60 11 10 116 98 149 125 10 8
29 24 41 35 12 11 44 38 70 60 27 22 54 45 60 50 6 6 47 39 91 75 44 35 82 67
85 70 3 4 66 52 140 108 74 56 144 109 155 117 32 25 123 55 178 59 29 2 55 4
59 5 23 3 44 44 42 78 -3 40 -5 193 -6 433 0 80 -1 237 -2 350 0 113 1 234 3
270 3 70 -4 117 -21 137 -13 16 -77 15 -97 -1 -8 -6 -15 -10 -15 -8 -1 2 -14
-2 -31 -8 -16 -7 -34 -13 -40 -14 -5 -2 -55 -24 -109 -50 -54 -26 -117 -50
-140 -53 -54 -9 -168 -9 -236 0 -53 7 -440 88 -510 107 -19 5 -93 23 -165 40
-71 17 -141 33 -155 37 -44 11 -138 30 -190 37 -19 3 -46 8 -60 10 -98 17
-148 21 -470 40 -42 2 -98 -2 -128 -9z"/>
<path d="M6637 6903 c-3 -2 -17 -6 -33 -9 -16 -3 -74 -19 -129 -35 -55 -17
-127 -39 -160 -49 -211 -63 -231 -87 -193 -225 10 -38 20 -74 21 -80 1 -5 5
-14 9 -20 5 -9 38 -116 42 -140 1 -5 7 -26 14 -45 6 -19 13 -46 16 -60 2 -14
12 -52 20 -85 9 -33 19 -76 22 -95 3 -19 7 -42 10 -50 3 -8 8 -31 10 -50 4
-34 8 -51 17 -95 3 -11 15 -67 26 -125 12 -58 26 -116 31 -130 5 -14 11 -36
14 -50 23 -130 49 -187 90 -199 58 -15 144 12 172 54 16 24 16 63 0 140 -13
60 -17 77 -26 100 -5 14 -7 25 -5 25 2 0 0 12 -6 28 -6 15 -13 36 -15 47 -5
25 -42 147 -60 196 -10 29 -10 40 -1 51 19 22 60 44 77 41 13 -3 76 -94 89
-128 2 -5 7 -12 10 -15 3 -3 15 -21 25 -40 29 -53 165 -260 181 -277 8 -8 18
-20 22 -27 5 -7 22 -19 39 -28 31 -15 33 -15 115 19 46 19 64 62 45 107 -12
27 -156 241 -184 272 -5 6 -40 56 -77 112 l-68 101 38 38 c43 43 63 85 71 146
5 44 5 123 0 154 -2 10 -7 41 -11 68 -18 134 -99 305 -159 337 -23 13 -93 27
-99 21z m-12 -301 c42 -36 55 -100 35 -173 -13 -47 -41 -71 -136 -119 -69 -35
-80 -38 -91 -24 -9 12 -33 95 -49 167 -1 4 -2 8 -3 10 -4 4 -13 50 -14 72 -2
17 14 25 93 52 108 37 137 39 165 15z"/>
<path d="M5792 6655 c-89 -23 -165 -43 -167 -44 -3 0 -6 -1 -7 -2 -2 0 -13 -2
-26 -5 -13 -2 -37 -11 -53 -20 l-31 -15 5 -77 c3 -42 7 -86 10 -97 5 -20 8
-46 27 -195 6 -47 12 -101 15 -120 2 -19 7 -57 10 -85 4 -27 8 -61 10 -75 2
-14 7 -52 10 -85 3 -33 8 -73 10 -90 2 -16 7 -52 10 -80 3 -27 8 -66 11 -86 5
-36 10 -83 20 -198 6 -77 26 -119 60 -127 23 -6 132 0 229 13 68 9 279 51 305
61 53 20 63 56 41 140 -18 66 -39 85 -102 87 -30 1 -58 -1 -63 -3 -6 -3 -19
-7 -30 -8 -47 -5 -112 -14 -164 -24 -53 -10 -58 -9 -74 12 -10 13 -18 39 -19
58 0 19 -2 44 -4 55 -3 11 -7 54 -11 97 -3 42 -7 88 -8 101 -4 34 4 44 39 50
100 18 164 50 174 87 11 43 -4 110 -32 138 -28 28 -73 33 -145 17 -30 -7 -55
-9 -58 -3 -12 19 -25 75 -30 130 -6 61 -6 62 62 74 15 3 42 11 60 19 19 8 34
12 34 10 0 -8 101 35 114 48 36 36 39 55 21 173 -2 12 -12 41 -22 65 -15 34
-26 45 -44 46 -13 0 -97 -18 -187 -42z"/>
<path d="M5268 6556 c-61 -15 -74 -65 -53 -196 12 -71 14 -91 20 -150 28 -291
28 -305 12 -291 -18 14 -90 161 -101 206 -2 6 -6 17 -9 25 -8 20 -45 150 -50
175 -13 61 -20 86 -28 91 -5 3 -9 14 -9 24 0 41 -77 57 -175 36 -11 -3 -28 -5
-37 -5 -30 -2 -36 -66 -23 -231 5 -58 9 -126 9 -152 1 -27 3 -48 6 -48 3 0 5
-24 6 -53 0 -28 4 -90 8 -137 8 -98 12 -143 32 -430 16 -222 12 -214 110 -206
40 4 81 9 89 13 27 10 35 49 29 146 -3 50 -6 120 -8 153 -4 67 4 94 21 72 6
-7 36 -62 68 -123 70 -134 121 -212 149 -231 22 -14 103 -13 127 1 36 23 45
171 23 375 -4 36 -8 76 -10 90 -1 14 -4 54 -7 90 -6 61 -12 153 -22 360 -11
195 -20 313 -30 357 -6 25 -14 33 -37 38 -49 11 -71 11 -110 1z"/>
<path d="M4565 6413 c-90 -30 -105 -51 -99 -138 2 -28 6 -131 8 -230 3 -99 6
-180 6 -180 1 0 3 -21 5 -47 1 -27 -1 -48 -5 -48 -8 0 -39 72 -43 100 -2 8 -5
20 -8 25 -8 13 -52 146 -55 165 -1 8 -5 26 -8 40 -4 14 -9 41 -12 60 -15 99
-57 173 -98 173 -34 0 -93 -22 -108 -40 -10 -13 -13 -90 -14 -357 -1 -188 -3
-416 -5 -508 -4 -161 -3 -168 18 -189 16 -16 36 -23 74 -25 108 -4 124 23 115
193 -3 65 -9 143 -12 173 l-6 55 24 -25 c51 -53 168 -279 168 -324 0 -6 13
-27 29 -46 29 -35 29 -35 107 -33 110 2 115 10 109 157 -2 61 -6 120 -9 131
-4 19 -12 105 -22 235 -3 30 -6 114 -8 185 -6 211 -18 366 -31 420 -17 71 -59
98 -120 78z"/>
<path d="M3925 6301 c-97 -35 -118 -60 -119 -141 -1 -28 -4 -50 -7 -50 -3 0
-4 -12 -2 -27 8 -59 9 -68 5 -76 -2 -5 -6 -70 -8 -145 -5 -151 -6 -172 -18
-190 -4 -6 -5 -12 -1 -12 11 0 -34 -78 -49 -83 -8 -3 -22 0 -32 8 -17 12 -19
35 -19 310 l-1 298 -23 18 c-24 20 -38 19 -123 -8 -71 -22 -89 -54 -94 -161
-5 -123 -6 -574 -2 -592 42 -162 109 -203 340 -204 100 -1 108 0 133 24 52 48
78 102 99 210 4 23 10 76 22 205 2 28 6 148 9 268 3 120 7 223 10 228 4 5 2 9
-4 9 -5 0 -8 10 -6 22 6 27 -12 98 -25 98 -4 0 -14 2 -22 5 -7 2 -36 -4 -63
-14z"/>
<path d="M3047 6164 c-2 -2 -21 -5 -42 -8 -22 -2 -67 -8 -100 -12 -33 -4 -67
-8 -75 -9 -50 -5 -77 -31 -86 -85 -12 -64 -15 -94 -19 -160 -12 -224 -15 -245
-35 -320 -7 -25 -14 -52 -15 -61 -5 -26 21 -56 55 -62 16 -4 31 -7 33 -7 1 -1
28 -7 60 -15 66 -15 86 -5 88 43 0 15 3 36 5 47 2 11 6 30 8 43 1 12 5 25 9
28 6 7 39 -43 87 -135 33 -62 72 -101 108 -108 53 -10 149 -13 162 -4 12 8 -3
44 -87 213 -101 201 -102 203 -80 215 12 7 28 12 35 13 24 0 91 52 115 89 13
20 28 57 33 81 7 42 7 58 0 103 -4 28 -54 87 -84 99 -24 9 -168 19 -175 12z
m104 -140 c23 -21 22 -83 -2 -106 -35 -35 -117 -42 -149 -13 -17 16 -20 90 -5
116 24 39 115 41 156 3z"/>
<path d="M8142 5721 c-40 -16 -74 -29 -75 -29 -1 -1 -9 -3 -17 -6 -8 -3 -37
-12 -65 -22 -373 -124 -605 -206 -682 -240 -17 -8 -34 -14 -37 -14 -6 0 -176
-64 -211 -80 -11 -5 -60 -28 -110 -50 -49 -23 -92 -40 -94 -40 -2 1 -7 -2 -10
-7 -3 -4 -40 -25 -81 -47 -74 -38 -143 -86 -167 -116 -24 -28 -11 -63 32 -87
22 -12 41 -20 44 -18 2 2 11 0 21 -5 15 -8 59 -14 190 -25 169 -15 183 -17
280 -39 37 -9 76 -24 170 -69 74 -35 94 -40 155 -40 101 0 141 23 276 156 115
114 249 227 268 227 6 0 11 5 11 10 0 6 4 10 9 10 4 0 38 19 74 43 36 23 105
67 152 97 47 30 85 58 85 63 0 4 5 7 11 7 12 0 21 9 62 59 15 19 26 40 23 47
-3 7 -1 16 3 19 12 7 -17 80 -53 137 -57 91 -137 109 -264 59z"/>
<path d="M2617 5193 c-9 -3 -29 -27 -42 -53 l-25 -49 31 -36 c17 -19 35 -35
40 -35 5 0 28 -12 50 -26 63 -40 237 -127 314 -158 96 -39 246 -111 314 -152
70 -42 122 -45 170 -10 30 23 81 86 81 101 0 12 61 95 88 121 15 14 64 48 110
77 91 55 108 75 89 100 -13 17 -48 24 -164 32 -43 3 -94 8 -113 10 -19 2 -73
7 -120 10 -47 3 -96 7 -110 10 -14 2 -63 7 -110 11 -110 9 -142 11 -215 18
-110 11 -189 17 -260 22 -38 2 -79 6 -90 8 -11 2 -28 1 -38 -1z"/>
<path d="M6018 5094 c-3 -2 -69 -6 -147 -8 -79 -3 -145 -7 -148 -10 -3 -3 -13
-1 -23 4 -10 5 -20 6 -24 3 -4 -4 -48 -8 -99 -9 -84 -1 -187 -5 -572 -20 -71
-2 -185 -6 -251 -8 -150 -5 -175 -17 -188 -88 -3 -13 -5 -23 -6 -23 -2 0 -5
-14 -14 -52 -7 -32 -55 -210 -71 -263 -39 -128 -56 -189 -64 -230 -8 -38 -35
-151 -40 -165 -1 -3 -3 -10 -5 -17 -2 -7 -13 -42 -25 -78 -13 -36 -24 -69 -25
-75 -4 -18 -39 -79 -63 -112 -25 -32 -25 -32 -56 -16 -18 9 -50 30 -72 48 -22
18 -53 39 -70 48 -31 15 -161 57 -173 56 -4 -1 -10 0 -14 1 -15 5 -24 6 -93
14 -38 4 -83 10 -100 13 -16 2 -37 5 -45 5 -30 1 -228 47 -280 66 -8 3 -20 6
-26 7 -30 7 -206 81 -254 108 -166 92 -192 102 -266 102 -60 0 -76 -4 -112
-28 -61 -40 -93 -90 -158 -250 -40 -96 -79 -173 -123 -237 -95 -138 -115 -202
-125 -400 -3 -51 14 -109 32 -111 4 0 18 -2 31 -5 19 -3 42 15 126 98 139 140
207 201 295 267 41 31 77 58 80 61 20 20 98 63 147 79 81 27 141 21 265 -29
57 -23 128 -50 158 -60 137 -44 242 -94 330 -154 25 -17 52 -35 61 -41 9 -5
56 -37 105 -70 169 -114 275 -155 389 -151 121 4 207 49 316 163 119 125 224
228 257 253 46 34 117 96 165 145 49 50 130 147 177 215 14 19 27 37 30 40 11
11 89 136 101 163 7 15 17 27 22 27 6 0 8 3 4 6 -6 7 31 62 69 101 25 27 83
52 104 45 68 -22 80 -34 126 -131 110 -230 155 -271 522 -477 177 -99 230
-156 216 -230 -5 -27 -19 -42 -77 -81 -40 -26 -76 -52 -82 -56 -5 -4 -48 -36
-95 -71 -95 -71 -177 -155 -217 -224 -15 -26 -31 -48 -35 -50 -4 -2 -8 -10 -8
-17 0 -8 -7 -21 -16 -29 -8 -9 -13 -16 -9 -16 3 0 -2 -11 -10 -24 -23 -35 -41
-102 -69 -256 -12 -69 -98 -269 -175 -408 -59 -105 -73 -128 -160 -264 -171
-266 -188 -364 -75 -418 43 -21 53 -22 389 -17 190 2 348 7 352 10 3 4 12 2
20 -4 7 -6 13 -7 13 -3 0 5 17 10 38 10 37 0 187 11 252 19 19 2 60 6 90 10
30 3 66 7 80 9 14 2 46 7 70 10 25 3 56 8 69 11 13 2 48 7 79 11 61 7 113 26
131 47 39 48 7 123 -69 162 -28 14 -148 52 -189 60 -48 9 -67 13 -132 29 -35
9 -73 18 -84 20 -11 3 -73 18 -138 35 -128 33 -194 60 -244 97 -29 22 -32 28
-28 72 12 133 143 378 291 542 13 14 53 61 91 105 37 44 75 87 83 95 65 69
164 184 220 255 17 22 36 47 43 55 32 41 107 160 125 200 65 144 41 329 -68
510 -28 46 -54 87 -58 90 -4 3 -21 25 -37 50 -17 25 -33 47 -37 48 -5 2 -8 10
-8 17 0 7 -3 15 -7 17 -5 2 -40 46 -80 98 -87 115 -90 118 -252 288 -71 75
-147 160 -168 187 -21 28 -41 52 -45 53 -5 2 -8 8 -8 13 0 18 -89 113 -98 105
-2 -3 -14 -1 -27 4 -13 5 -25 7 -27 4z"/>
</g>
</svg>
